<svg width="80" height="83" viewBox="0 0 80 83" fill="none" xmlns="http://www.w3.org/2000/svg">
<path d="M4.172 11.098C3.528 11.098 2.94933 10.986 2.436 10.762C1.932 10.5287 1.53533 10.2113 1.246 9.81C0.956667 9.39933 0.807333 8.928 0.798 8.396H2.156C2.20267 8.85333 2.38933 9.24067 2.716 9.558C3.052 9.866 3.53733 10.02 4.172 10.02C4.77867 10.02 5.25467 9.87067 5.6 9.572C5.95467 9.264 6.132 8.872 6.132 8.396C6.132 8.02267 6.02933 7.71933 5.824 7.486C5.61867 7.25267 5.362 7.07533 5.054 6.954C4.746 6.83267 4.33067 6.702 3.808 6.562C3.164 6.394 2.646 6.226 2.254 6.058C1.87133 5.89 1.54 5.62867 1.26 5.274C0.989333 4.91 0.854 4.42467 0.854 3.818C0.854 3.286 0.989333 2.81467 1.26 2.404C1.53067 1.99333 1.90867 1.676 2.394 1.452C2.88867 1.228 3.45333 1.116 4.088 1.116C5.00267 1.116 5.74933 1.34467 6.328 1.802C6.916 2.25933 7.24733 2.866 7.322 3.622H5.922C5.87533 3.24867 5.67933 2.922 5.334 2.642C4.98867 2.35267 4.53133 2.208 3.962 2.208C3.43 2.208 2.996 2.348 2.66 2.628C2.324 2.89867 2.156 3.28133 2.156 3.776C2.156 4.13067 2.254 4.42 2.45 4.644C2.65533 4.868 2.90267 5.04067 3.192 5.162C3.49067 5.274 3.906 5.40467 4.438 5.554C5.082 5.73133 5.6 5.90867 5.992 6.086C6.384 6.254 6.72 6.52 7 6.884C7.28 7.23867 7.42 7.724 7.42 8.34C7.42 8.816 7.294 9.264 7.042 9.684C6.79 10.104 6.41667 10.4447 5.922 10.706C5.42733 10.9673 4.844 11.098 4.172 11.098ZM8.8188 7.136C8.8188 6.352 8.97746 5.666 9.2948 5.078C9.61213 4.48067 10.0461 4.01867 10.5968 3.692C11.1568 3.36533 11.7775 3.202 12.4588 3.202C13.1308 3.202 13.7141 3.34667 14.2088 3.636C14.7035 3.92533 15.0721 4.28933 15.3148 4.728V3.328H16.6028V11H15.3148V9.572C15.0628 10.02 14.6848 10.3933 14.1808 10.692C13.6861 10.9813 13.1075 11.126 12.4448 11.126C11.7635 11.126 11.1475 10.958 10.5968 10.622C10.0461 10.286 9.61213 9.81467 9.2948 9.208C8.97746 8.60133 8.8188 7.91067 8.8188 7.136ZM15.3148 7.15C15.3148 6.57133 15.1981 6.06733 14.9648 5.638C14.7315 5.20867 14.4141 4.882 14.0128 4.658C13.6208 4.42467 13.1868 4.308 12.7108 4.308C12.2348 4.308 11.8008 4.42 11.4088 4.644C11.0168 4.868 10.7041 5.19467 10.4708 5.624C10.2375 6.05333 10.1208 6.55733 10.1208 7.136C10.1208 7.724 10.2375 8.23733 10.4708 8.676C10.7041 9.10533 11.0168 9.43667 11.4088 9.67C11.8008 9.894 12.2348 10.006 12.7108 10.006C13.1868 10.006 13.6208 9.894 14.0128 9.67C14.4141 9.43667 14.7315 9.10533 14.9648 8.676C15.1981 8.23733 15.3148 7.72867 15.3148 7.15ZM22.4937 3.188C23.4271 3.188 24.1831 3.47267 24.7617 4.042C25.3404 4.602 25.6297 5.414 25.6297 6.478V11H24.3697V6.66C24.3697 5.89467 24.1784 5.31133 23.7957 4.91C23.4131 4.49933 22.8904 4.294 22.2277 4.294C21.5557 4.294 21.0191 4.504 20.6177 4.924C20.2257 5.344 20.0297 5.95533 20.0297 6.758V11H18.7557V3.328H20.0297V4.42C20.2817 4.028 20.6224 3.72467 21.0517 3.51C21.4904 3.29533 21.9711 3.188 22.4937 3.188ZM27.2348 7.136C27.2348 6.352 27.3935 5.666 27.7108 5.078C28.0281 4.48067 28.4621 4.01867 29.0128 3.692C29.5728 3.36533 30.1981 3.202 30.8888 3.202C31.4861 3.202 32.0415 3.342 32.5548 3.622C33.0681 3.89267 33.4601 4.252 33.7308 4.7V0.64H35.0188V11H33.7308V9.558C33.4788 10.0153 33.1055 10.3933 32.6108 10.692C32.1161 10.9813 31.5375 11.126 30.8748 11.126C30.1935 11.126 29.5728 10.958 29.0128 10.622C28.4621 10.286 28.0281 9.81467 27.7108 9.208C27.3935 8.60133 27.2348 7.91067 27.2348 7.136ZM33.7308 7.15C33.7308 6.57133 33.6141 6.06733 33.3808 5.638C33.1475 5.20867 32.8301 4.882 32.4288 4.658C32.0368 4.42467 31.6028 4.308 31.1268 4.308C30.6508 4.308 30.2168 4.42 29.8248 4.644C29.4328 4.868 29.1201 5.19467 28.8868 5.624C28.6535 6.05333 28.5368 6.55733 28.5368 7.136C28.5368 7.724 28.6535 8.23733 28.8868 8.676C29.1201 9.10533 29.4328 9.43667 29.8248 9.67C30.2168 9.894 30.6508 10.006 31.1268 10.006C31.6028 10.006 32.0368 9.894 32.4288 9.67C32.8301 9.43667 33.1475 9.10533 33.3808 8.676C33.6141 8.23733 33.7308 7.72867 33.7308 7.15ZM43.9982 11.098C43.3542 11.098 42.7755 10.986 42.2622 10.762C41.7582 10.5287 41.3615 10.2113 41.0722 9.81C40.7828 9.39933 40.6335 8.928 40.6242 8.396H41.9822C42.0288 8.85333 42.2155 9.24067 42.5422 9.558C42.8782 9.866 43.3635 10.02 43.9982 10.02C44.6048 10.02 45.0808 9.87067 45.4262 9.572C45.7808 9.264 45.9582 8.872 45.9582 8.396C45.9582 8.02267 45.8555 7.71933 45.6502 7.486C45.4448 7.25267 45.1882 7.07533 44.8802 6.954C44.5722 6.83267 44.1568 6.702 43.6342 6.562C42.9902 6.394 42.4722 6.226 42.0802 6.058C41.6975 5.89 41.3662 5.62867 41.0862 5.274C40.8155 4.91 40.6802 4.42467 40.6802 3.818C40.6802 3.286 40.8155 2.81467 41.0862 2.404C41.3568 1.99333 41.7348 1.676 42.2202 1.452C42.7148 1.228 43.2795 1.116 43.9142 1.116C44.8288 1.116 45.5755 1.34467 46.1542 1.802C46.7422 2.25933 47.0735 2.866 47.1482 3.622H45.7482C45.7015 3.24867 45.5055 2.922 45.1602 2.642C44.8148 2.35267 44.3575 2.208 43.7882 2.208C43.2562 2.208 42.8222 2.348 42.4862 2.628C42.1502 2.89867 41.9822 3.28133 41.9822 3.776C41.9822 4.13067 42.0802 4.42 42.2762 4.644C42.4815 4.868 42.7288 5.04067 43.0182 5.162C43.3168 5.274 43.7322 5.40467 44.2642 5.554C44.9082 5.73133 45.4262 5.90867 45.8182 6.086C46.2102 6.254 46.5462 6.52 46.8262 6.884C47.1062 7.23867 47.2462 7.724 47.2462 8.34C47.2462 8.816 47.1202 9.264 46.8682 9.684C46.6162 10.104 46.2428 10.4447 45.7482 10.706C45.2535 10.9673 44.6702 11.098 43.9982 11.098ZM50.675 4.378V8.9C50.675 9.27333 50.7543 9.53933 50.913 9.698C51.0716 9.84733 51.347 9.922 51.739 9.922H52.677V11H51.529C50.8196 11 50.2876 10.8367 49.933 10.51C49.5783 10.1833 49.401 9.64667 49.401 8.9V4.378H48.407V3.328H49.401V1.396H50.675V3.328H52.677V4.378H50.675ZM57.5666 11.126C56.8479 11.126 56.1946 10.9627 55.6066 10.636C55.0279 10.3093 54.5706 9.84733 54.2346 9.25C53.9079 8.64333 53.7446 7.94333 53.7446 7.15C53.7446 6.366 53.9126 5.67533 54.2486 5.078C54.5939 4.47133 55.0606 4.00933 55.6486 3.692C56.2366 3.36533 56.8946 3.202 57.6226 3.202C58.3506 3.202 59.0086 3.36533 59.5966 3.692C60.1846 4.00933 60.6466 4.46667 60.9826 5.064C61.3279 5.66133 61.5006 6.35667 61.5006 7.15C61.5006 7.94333 61.3232 8.64333 60.9686 9.25C60.6232 9.84733 60.1519 10.3093 59.5546 10.636C58.9572 10.9627 58.2946 11.126 57.5666 11.126ZM57.5666 10.006C58.0239 10.006 58.4532 9.89867 58.8546 9.684C59.2559 9.46933 59.5779 9.14733 59.8206 8.718C60.0726 8.28867 60.1986 7.766 60.1986 7.15C60.1986 6.534 60.0772 6.01133 59.8346 5.582C59.5919 5.15267 59.2746 4.83533 58.8826 4.63C58.4906 4.41533 58.0659 4.308 57.6086 4.308C57.1419 4.308 56.7126 4.41533 56.3206 4.63C55.9379 4.83533 55.6299 5.15267 55.3966 5.582C55.1632 6.01133 55.0466 6.534 55.0466 7.15C55.0466 7.77533 55.1586 8.30267 55.3826 8.732C55.6159 9.16133 55.9239 9.48333 56.3066 9.698C56.6892 9.90333 57.1092 10.006 57.5666 10.006ZM66.9137 3.188C67.847 3.188 68.603 3.47267 69.1817 4.042C69.7603 4.602 70.0497 5.414 70.0497 6.478V11H68.7897V6.66C68.7897 5.89467 68.5983 5.31133 68.2157 4.91C67.833 4.49933 67.3103 4.294 66.6477 4.294C65.9757 4.294 65.439 4.504 65.0377 4.924C64.6457 5.344 64.4497 5.95533 64.4497 6.758V11H63.1757V3.328H64.4497V4.42C64.7017 4.028 65.0423 3.72467 65.4717 3.51C65.9103 3.29533 66.391 3.188 66.9137 3.188ZM79.1307 6.87C79.1307 7.11267 79.1167 7.36933 79.0887 7.64H72.9567C73.0034 8.396 73.2601 8.98867 73.7267 9.418C74.2027 9.838 74.7767 10.048 75.4487 10.048C75.9994 10.048 76.4567 9.922 76.8207 9.67C77.1941 9.40867 77.4554 9.06333 77.6047 8.634H78.9767C78.7714 9.37133 78.3607 9.97333 77.7447 10.44C77.1287 10.8973 76.3634 11.126 75.4487 11.126C74.7207 11.126 74.0674 10.9627 73.4887 10.636C72.9194 10.3093 72.4714 9.84733 72.1447 9.25C71.8181 8.64333 71.6547 7.94333 71.6547 7.15C71.6547 6.35667 71.8134 5.66133 72.1307 5.064C72.4481 4.46667 72.8914 4.00933 73.4607 3.692C74.0394 3.36533 74.7021 3.202 75.4487 3.202C76.1767 3.202 76.8207 3.36067 77.3807 3.678C77.9407 3.99533 78.3701 4.434 78.6687 4.994C78.9767 5.54467 79.1307 6.17 79.1307 6.87ZM77.8147 6.604C77.8147 6.11867 77.7074 5.70333 77.4927 5.358C77.2781 5.00333 76.9841 4.73733 76.6107 4.56C76.2467 4.37333 75.8407 4.28 75.3927 4.28C74.7487 4.28 74.1981 4.48533 73.7407 4.896C73.2927 5.30667 73.0361 5.876 72.9707 6.604H77.8147Z" fill="white"/>
<path d="M4.172 35.098C3.528 35.098 2.94933 34.986 2.436 34.762C1.932 34.5287 1.53533 34.2113 1.246 33.81C0.956667 33.3993 0.807333 32.928 0.798 32.396H2.156C2.20267 32.8533 2.38933 33.2407 2.716 33.558C3.052 33.866 3.53733 34.02 4.172 34.02C4.77867 34.02 5.25467 33.8707 5.6 33.572C5.95467 33.264 6.132 32.872 6.132 32.396C6.132 32.0227 6.02933 31.7193 5.824 31.486C5.61867 31.2527 5.362 31.0753 5.054 30.954C4.746 30.8327 4.33067 30.702 3.808 30.562C3.164 30.394 2.646 30.226 2.254 30.058C1.87133 29.89 1.54 29.6287 1.26 29.274C0.989333 28.91 0.854 28.4247 0.854 27.818C0.854 27.286 0.989333 26.8147 1.26 26.404C1.53067 25.9933 1.90867 25.676 2.394 25.452C2.88867 25.228 3.45333 25.116 4.088 25.116C5.00267 25.116 5.74933 25.3447 6.328 25.802C6.916 26.2593 7.24733 26.866 7.322 27.622H5.922C5.87533 27.2487 5.67933 26.922 5.334 26.642C4.98867 26.3527 4.53133 26.208 3.962 26.208C3.43 26.208 2.996 26.348 2.66 26.628C2.324 26.8987 2.156 27.2813 2.156 27.776C2.156 28.1307 2.254 28.42 2.45 28.644C2.65533 28.868 2.90267 29.0407 3.192 29.162C3.49067 29.274 3.906 29.4047 4.438 29.554C5.082 29.7313 5.6 29.9087 5.992 30.086C6.384 30.254 6.72 30.52 7 30.884C7.28 31.2387 7.42 31.724 7.42 32.34C7.42 32.816 7.294 33.264 7.042 33.684C6.79 34.104 6.41667 34.4447 5.922 34.706C5.42733 34.9673 4.844 35.098 4.172 35.098ZM10.8488 28.378V32.9C10.8488 33.2733 10.9281 33.5393 11.0868 33.698C11.2455 33.8473 11.5208 33.922 11.9128 33.922H12.8508V35H11.7028C10.9935 35 10.4615 34.8367 10.1068 34.51C9.75213 34.1833 9.5748 33.6467 9.5748 32.9V28.378H8.5808V27.328H9.5748V25.396H10.8488V27.328H12.8508V28.378H10.8488ZM17.7404 35.126C17.0217 35.126 16.3684 34.9627 15.7804 34.636C15.2017 34.3093 14.7444 33.8473 14.4084 33.25C14.0817 32.6433 13.9184 31.9433 13.9184 31.15C13.9184 30.366 14.0864 29.6753 14.4224 29.078C14.7677 28.4713 15.2344 28.0093 15.8224 27.692C16.4104 27.3653 17.0684 27.202 17.7964 27.202C18.5244 27.202 19.1824 27.3653 19.7704 27.692C20.3584 28.0093 20.8204 28.4667 21.1564 29.064C21.5017 29.6613 21.6744 30.3567 21.6744 31.15C21.6744 31.9433 21.4971 32.6433 21.1424 33.25C20.7971 33.8473 20.3257 34.3093 19.7284 34.636C19.1311 34.9627 18.4684 35.126 17.7404 35.126ZM17.7404 34.006C18.1977 34.006 18.6271 33.8987 19.0284 33.684C19.4297 33.4693 19.7517 33.1473 19.9944 32.718C20.2464 32.2887 20.3724 31.766 20.3724 31.15C20.3724 30.534 20.2511 30.0113 20.0084 29.582C19.7657 29.1527 19.4484 28.8353 19.0564 28.63C18.6644 28.4153 18.2397 28.308 17.7824 28.308C17.3157 28.308 16.8864 28.4153 16.4944 28.63C16.1117 28.8353 15.8037 29.1527 15.5704 29.582C15.3371 30.0113 15.2204 30.534 15.2204 31.15C15.2204 31.7753 15.3324 32.3027 15.5564 32.732C15.7897 33.1613 16.0977 33.4833 16.4804 33.698C16.8631 33.9033 17.2831 34.006 17.7404 34.006ZM27.0875 27.188C28.0208 27.188 28.7768 27.4727 29.3555 28.042C29.9342 28.602 30.2235 29.414 30.2235 30.478V35H28.9635V30.66C28.9635 29.8947 28.7722 29.3113 28.3895 28.91C28.0068 28.4993 27.4842 28.294 26.8215 28.294C26.1495 28.294 25.6128 28.504 25.2115 28.924C24.8195 29.344 24.6235 29.9553 24.6235 30.758V35H23.3495V27.328H24.6235V28.42C24.8755 28.028 25.2162 27.7247 25.6455 27.51C26.0842 27.2953 26.5648 27.188 27.0875 27.188ZM39.3046 30.87C39.3046 31.1127 39.2906 31.3693 39.2626 31.64H33.1306C33.1772 32.396 33.4339 32.9887 33.9006 33.418C34.3766 33.838 34.9506 34.048 35.6226 34.048C36.1732 34.048 36.6306 33.922 36.9946 33.67C37.3679 33.4087 37.6292 33.0633 37.7786 32.634H39.1506C38.9452 33.3713 38.5346 33.9733 37.9186 34.44C37.3026 34.8973 36.5372 35.126 35.6226 35.126C34.8946 35.126 34.2412 34.9627 33.6626 34.636C33.0932 34.3093 32.6452 33.8473 32.3186 33.25C31.9919 32.6433 31.8286 31.9433 31.8286 31.15C31.8286 30.3567 31.9872 29.6613 32.3046 29.064C32.6219 28.4667 33.0652 28.0093 33.6346 27.692C34.2132 27.3653 34.8759 27.202 35.6226 27.202C36.3506 27.202 36.9946 27.3607 37.5546 27.678C38.1146 27.9953 38.5439 28.434 38.8426 28.994C39.1506 29.5447 39.3046 30.17 39.3046 30.87ZM37.9886 30.604C37.9886 30.1187 37.8812 29.7033 37.6666 29.358C37.4519 29.0033 37.1579 28.7373 36.7846 28.56C36.4206 28.3733 36.0146 28.28 35.5666 28.28C34.9226 28.28 34.3719 28.4853 33.9146 28.896C33.4666 29.3067 33.2099 29.876 33.1446 30.604H37.9886ZM0.602 53.114C0.602 52.162 0.816667 51.308 1.246 50.552C1.67533 49.7867 2.25867 49.1893 2.996 48.76C3.74267 48.3307 4.56867 48.116 5.474 48.116C6.538 48.116 7.46667 48.3727 8.26 48.886C9.05333 49.3993 9.632 50.1273 9.996 51.07H8.47C8.19933 50.482 7.80733 50.0293 7.294 49.712C6.79 49.3947 6.18333 49.236 5.474 49.236C4.79267 49.236 4.18133 49.3947 3.64 49.712C3.09867 50.0293 2.674 50.482 2.366 51.07C2.058 51.6487 1.904 52.33 1.904 53.114C1.904 53.8887 2.058 54.57 2.366 55.158C2.674 55.7367 3.09867 56.1847 3.64 56.502C4.18133 56.8193 4.79267 56.978 5.474 56.978C6.18333 56.978 6.79 56.824 7.294 56.516C7.80733 56.1987 8.19933 55.746 8.47 55.158H9.996C9.632 56.0913 9.05333 56.8147 8.26 57.328C7.46667 57.832 6.538 58.084 5.474 58.084C4.56867 58.084 3.74267 57.874 2.996 57.454C2.25867 57.0247 1.67533 56.432 1.246 55.676C0.816667 54.92 0.602 54.066 0.602 53.114ZM18.8925 53.87C18.8925 54.1127 18.8785 54.3693 18.8505 54.64H12.7185C12.7651 55.396 13.0218 55.9887 13.4885 56.418C13.9645 56.838 14.5385 57.048 15.2105 57.048C15.7611 57.048 16.2185 56.922 16.5825 56.67C16.9558 56.4087 17.2171 56.0633 17.3665 55.634H18.7385C18.5331 56.3713 18.1225 56.9733 17.5065 57.44C16.8905 57.8973 16.1251 58.126 15.2105 58.126C14.4825 58.126 13.8291 57.9627 13.2505 57.636C12.6811 57.3093 12.2331 56.8473 11.9065 56.25C11.5798 55.6433 11.4165 54.9433 11.4165 54.15C11.4165 53.3567 11.5751 52.6613 11.8925 52.064C12.2098 51.4667 12.6531 51.0093 13.2225 50.692C13.8011 50.3653 14.4638 50.202 15.2105 50.202C15.9385 50.202 16.5825 50.3607 17.1425 50.678C17.7025 50.9953 18.1318 51.434 18.4305 51.994C18.7385 52.5447 18.8925 53.17 18.8925 53.87ZM17.5765 53.604C17.5765 53.1187 17.4691 52.7033 17.2545 52.358C17.0398 52.0033 16.7458 51.7373 16.3725 51.56C16.0085 51.3733 15.6025 51.28 15.1545 51.28C14.5105 51.28 13.9598 51.4853 13.5025 51.896C13.0545 52.3067 12.7978 52.876 12.7325 53.604H17.5765ZM29.8001 50.188C30.3974 50.188 30.9294 50.314 31.3961 50.566C31.8628 50.8087 32.2314 51.1773 32.5021 51.672C32.7728 52.1667 32.9081 52.7687 32.9081 53.478V58H31.6481V53.66C31.6481 52.8947 31.4568 52.3113 31.0741 51.91C30.7008 51.4993 30.1921 51.294 29.5481 51.294C28.8854 51.294 28.3581 51.5087 27.9661 51.938C27.5741 52.358 27.3781 52.9693 27.3781 53.772V58H26.1181V53.66C26.1181 52.8947 25.9268 52.3113 25.5441 51.91C25.1708 51.4993 24.6621 51.294 24.0181 51.294C23.3554 51.294 22.8281 51.5087 22.4361 51.938C22.0441 52.358 21.8481 52.9693 21.8481 53.772V58H20.5741V50.328H21.8481V51.434C22.1001 51.0327 22.4361 50.7247 22.8561 50.51C23.2854 50.2953 23.7568 50.188 24.2701 50.188C24.9141 50.188 25.4834 50.3327 25.9781 50.622C26.4728 50.9113 26.8414 51.336 27.0841 51.896C27.2988 51.3547 27.6534 50.9347 28.1481 50.636C28.6428 50.3373 29.1934 50.188 29.8001 50.188ZM41.9979 53.87C41.9979 54.1127 41.9839 54.3693 41.9559 54.64H35.8239C35.8706 55.396 36.1273 55.9887 36.5939 56.418C37.0699 56.838 37.6439 57.048 38.3159 57.048C38.8666 57.048 39.3239 56.922 39.6879 56.67C40.0613 56.4087 40.3226 56.0633 40.4719 55.634H41.8439C41.6386 56.3713 41.2279 56.9733 40.6119 57.44C39.9959 57.8973 39.2306 58.126 38.3159 58.126C37.5879 58.126 36.9346 57.9627 36.3559 57.636C35.7866 57.3093 35.3386 56.8473 35.0119 56.25C34.6853 55.6433 34.5219 54.9433 34.5219 54.15C34.5219 53.3567 34.6806 52.6613 34.9979 52.064C35.3153 51.4667 35.7586 51.0093 36.3279 50.692C36.9066 50.3653 37.5693 50.202 38.3159 50.202C39.0439 50.202 39.6879 50.3607 40.2479 50.678C40.8079 50.9953 41.2373 51.434 41.5359 51.994C41.8439 52.5447 41.9979 53.17 41.9979 53.87ZM40.6819 53.604C40.6819 53.1187 40.5746 52.7033 40.3599 52.358C40.1453 52.0033 39.8513 51.7373 39.4779 51.56C39.1139 51.3733 38.7079 51.28 38.2599 51.28C37.6159 51.28 37.0653 51.4853 36.6079 51.896C36.1599 52.3067 35.9033 52.876 35.8379 53.604H40.6819ZM47.4176 50.188C48.3509 50.188 49.1069 50.4727 49.6856 51.042C50.2642 51.602 50.5536 52.414 50.5536 53.478V58H49.2936V53.66C49.2936 52.8947 49.1022 52.3113 48.7196 51.91C48.3369 51.4993 47.8142 51.294 47.1516 51.294C46.4796 51.294 45.9429 51.504 45.5416 51.924C45.1496 52.344 44.9536 52.9553 44.9536 53.758V58H43.6796V50.328H44.9536V51.42C45.2056 51.028 45.5462 50.7247 45.9756 50.51C46.4142 50.2953 46.8949 50.188 47.4176 50.188ZM54.1886 51.378V55.9C54.1886 56.2733 54.268 56.5393 54.4266 56.698C54.5853 56.8473 54.8606 56.922 55.2526 56.922H56.1906V58H55.0426C54.3333 58 53.8013 57.8367 53.4466 57.51C53.092 57.1833 52.9146 56.6467 52.9146 55.9V51.378H51.9206V50.328H52.9146V48.396H54.1886V50.328H56.1906V51.378H54.1886ZM4.172 82.098C3.528 82.098 2.94933 81.986 2.436 81.762C1.932 81.5287 1.53533 81.2113 1.246 80.81C0.956667 80.3993 0.807333 79.928 0.798 79.396H2.156C2.20267 79.8533 2.38933 80.2407 2.716 80.558C3.052 80.866 3.53733 81.02 4.172 81.02C4.77867 81.02 5.25467 80.8707 5.6 80.572C5.95467 80.264 6.132 79.872 6.132 79.396C6.132 79.0227 6.02933 78.7193 5.824 78.486C5.61867 78.2527 5.362 78.0753 5.054 77.954C4.746 77.8327 4.33067 77.702 3.808 77.562C3.164 77.394 2.646 77.226 2.254 77.058C1.87133 76.89 1.54 76.6287 1.26 76.274C0.989333 75.91 0.854 75.4247 0.854 74.818C0.854 74.286 0.989333 73.8147 1.26 73.404C1.53067 72.9933 1.90867 72.676 2.394 72.452C2.88867 72.228 3.45333 72.116 4.088 72.116C5.00267 72.116 5.74933 72.3447 6.328 72.802C6.916 73.2593 7.24733 73.866 7.322 74.622H5.922C5.87533 74.2487 5.67933 73.922 5.334 73.642C4.98867 73.3527 4.53133 73.208 3.962 73.208C3.43 73.208 2.996 73.348 2.66 73.628C2.324 73.8987 2.156 74.2813 2.156 74.776C2.156 75.1307 2.254 75.42 2.45 75.644C2.65533 75.868 2.90267 76.0407 3.192 76.162C3.49067 76.274 3.906 76.4047 4.438 76.554C5.082 76.7313 5.6 76.9087 5.992 77.086C6.384 77.254 6.72 77.52 7 77.884C7.28 78.2387 7.42 78.724 7.42 79.34C7.42 79.816 7.294 80.264 7.042 80.684C6.79 81.104 6.41667 81.4447 5.922 81.706C5.42733 81.9673 4.844 82.098 4.172 82.098ZM12.6408 82.126C11.9221 82.126 11.2688 81.9627 10.6808 81.636C10.1021 81.3093 9.6448 80.8473 9.3088 80.25C8.98213 79.6433 8.8188 78.9433 8.8188 78.15C8.8188 77.366 8.9868 76.6753 9.3228 76.078C9.66813 75.4713 10.1348 75.0093 10.7228 74.692C11.3108 74.3653 11.9688 74.202 12.6968 74.202C13.4248 74.202 14.0828 74.3653 14.6708 74.692C15.2588 75.0093 15.7208 75.4667 16.0568 76.064C16.4021 76.6613 16.5748 77.3567 16.5748 78.15C16.5748 78.9433 16.3975 79.6433 16.0428 80.25C15.6975 80.8473 15.2261 81.3093 14.6288 81.636C14.0315 81.9627 13.3688 82.126 12.6408 82.126ZM12.6408 81.006C13.0981 81.006 13.5275 80.8987 13.9288 80.684C14.3301 80.4693 14.6521 80.1473 14.8948 79.718C15.1468 79.2887 15.2728 78.766 15.2728 78.15C15.2728 77.534 15.1515 77.0113 14.9088 76.582C14.6661 76.1527 14.3488 75.8353 13.9568 75.63C13.5648 75.4153 13.1401 75.308 12.6828 75.308C12.2161 75.308 11.7868 75.4153 11.3948 75.63C11.0121 75.8353 10.7041 76.1527 10.4708 76.582C10.2375 77.0113 10.1208 77.534 10.1208 78.15C10.1208 78.7753 10.2328 79.3027 10.4568 79.732C10.6901 80.1613 10.9981 80.4833 11.3808 80.698C11.7635 80.9033 12.1835 81.006 12.6408 81.006ZM21.3719 75.378H19.7619V82H18.4879V75.378H17.4939V74.328H18.4879V73.782C18.4879 72.9233 18.7072 72.298 19.1459 71.906C19.5939 71.5047 20.3079 71.304 21.2879 71.304V72.368C20.7279 72.368 20.3312 72.48 20.0979 72.704C19.8739 72.9187 19.7619 73.278 19.7619 73.782V74.328H21.3719V75.378ZM24.4113 75.378V79.9C24.4113 80.2733 24.4906 80.5393 24.6493 80.698C24.808 80.8473 25.0833 80.922 25.4753 80.922H26.4133V82H25.2653C24.556 82 24.024 81.8367 23.6693 81.51C23.3146 81.1833 23.1373 80.6467 23.1373 79.9V75.378H22.1433V74.328H23.1373V72.396H24.4113V74.328H26.4133V75.378H24.4113ZM34.7833 82.098C34.1393 82.098 33.5607 81.986 33.0473 81.762C32.5433 81.5287 32.1467 81.2113 31.8573 80.81C31.568 80.3993 31.4187 79.928 31.4093 79.396H32.7673C32.814 79.8533 33.0007 80.2407 33.3273 80.558C33.6633 80.866 34.1487 81.02 34.7833 81.02C35.39 81.02 35.866 80.8707 36.2113 80.572C36.566 80.264 36.7433 79.872 36.7433 79.396C36.7433 79.0227 36.6407 78.7193 36.4353 78.486C36.23 78.2527 35.9733 78.0753 35.6653 77.954C35.3573 77.8327 34.942 77.702 34.4193 77.562C33.7753 77.394 33.2573 77.226 32.8653 77.058C32.4827 76.89 32.1513 76.6287 31.8713 76.274C31.6007 75.91 31.4653 75.4247 31.4653 74.818C31.4653 74.286 31.6007 73.8147 31.8713 73.404C32.142 72.9933 32.52 72.676 33.0053 72.452C33.5 72.228 34.0647 72.116 34.6993 72.116C35.614 72.116 36.3607 72.3447 36.9393 72.802C37.5273 73.2593 37.8587 73.866 37.9333 74.622H36.5333C36.4867 74.2487 36.2907 73.922 35.9453 73.642C35.6 73.3527 35.1427 73.208 34.5733 73.208C34.0413 73.208 33.6073 73.348 33.2713 73.628C32.9353 73.8987 32.7673 74.2813 32.7673 74.776C32.7673 75.1307 32.8653 75.42 33.0613 75.644C33.2667 75.868 33.514 76.0407 33.8033 76.162C34.102 76.274 34.5173 76.4047 35.0493 76.554C35.6933 76.7313 36.2113 76.9087 36.6033 77.086C36.9953 77.254 37.3313 77.52 37.6113 77.884C37.8913 78.2387 38.0313 78.724 38.0313 79.34C38.0313 79.816 37.9053 80.264 37.6533 80.684C37.4013 81.104 37.028 81.4447 36.5333 81.706C36.0387 81.9673 35.4553 82.098 34.7833 82.098ZM41.4601 75.378V79.9C41.4601 80.2733 41.5395 80.5393 41.6981 80.698C41.8568 80.8473 42.1321 80.922 42.5241 80.922H43.4621V82H42.3141C41.6048 82 41.0728 81.8367 40.7181 81.51C40.3635 81.1833 40.1861 80.6467 40.1861 79.9V75.378H39.1921V74.328H40.1861V72.396H41.4601V74.328H43.4621V75.378H41.4601ZM48.3517 82.126C47.6331 82.126 46.9797 81.9627 46.3917 81.636C45.8131 81.3093 45.3557 80.8473 45.0197 80.25C44.6931 79.6433 44.5297 78.9433 44.5297 78.15C44.5297 77.366 44.6977 76.6753 45.0337 76.078C45.3791 75.4713 45.8457 75.0093 46.4337 74.692C47.0217 74.3653 47.6797 74.202 48.4077 74.202C49.1357 74.202 49.7937 74.3653 50.3817 74.692C50.9697 75.0093 51.4317 75.4667 51.7677 76.064C52.1131 76.6613 52.2857 77.3567 52.2857 78.15C52.2857 78.9433 52.1084 79.6433 51.7537 80.25C51.4084 80.8473 50.9371 81.3093 50.3397 81.636C49.7424 81.9627 49.0797 82.126 48.3517 82.126ZM48.3517 81.006C48.8091 81.006 49.2384 80.8987 49.6397 80.684C50.0411 80.4693 50.3631 80.1473 50.6057 79.718C50.8577 79.2887 50.9837 78.766 50.9837 78.15C50.9837 77.534 50.8624 77.0113 50.6197 76.582C50.3771 76.1527 50.0597 75.8353 49.6677 75.63C49.2757 75.4153 48.8511 75.308 48.3937 75.308C47.9271 75.308 47.4977 75.4153 47.1057 75.63C46.7231 75.8353 46.4151 76.1527 46.1817 76.582C45.9484 77.0113 45.8317 77.534 45.8317 78.15C45.8317 78.7753 45.9437 79.3027 46.1677 79.732C46.4011 80.1613 46.7091 80.4833 47.0917 80.698C47.4744 80.9033 47.8944 81.006 48.3517 81.006ZM57.6988 74.188C58.6321 74.188 59.3881 74.4727 59.9668 75.042C60.5455 75.602 60.8348 76.414 60.8348 77.478V82H59.5748V77.66C59.5748 76.8947 59.3835 76.3113 59.0008 75.91C58.6181 75.4993 58.0955 75.294 57.4328 75.294C56.7608 75.294 56.2241 75.504 55.8228 75.924C55.4308 76.344 55.2348 76.9553 55.2348 77.758V82H53.9608V74.328H55.2348V75.42C55.4868 75.028 55.8275 74.7247 56.2568 74.51C56.6955 74.2953 57.1761 74.188 57.6988 74.188ZM69.9159 77.87C69.9159 78.1127 69.9019 78.3693 69.8739 78.64H63.7419C63.7886 79.396 64.0452 79.9887 64.5119 80.418C64.9879 80.838 65.5619 81.048 66.2339 81.048C66.7846 81.048 67.2419 80.922 67.6059 80.67C67.9792 80.4087 68.2406 80.0633 68.3899 79.634H69.7619C69.5566 80.3713 69.1459 80.9733 68.5299 81.44C67.9139 81.8973 67.1486 82.126 66.2339 82.126C65.5059 82.126 64.8526 81.9627 64.2739 81.636C63.7046 81.3093 63.2566 80.8473 62.9299 80.25C62.6032 79.6433 62.4399 78.9433 62.4399 78.15C62.4399 77.3567 62.5986 76.6613 62.9159 76.064C63.2332 75.4667 63.6766 75.0093 64.2459 74.692C64.8246 74.3653 65.4872 74.202 66.2339 74.202C66.9619 74.202 67.6059 74.3607 68.1659 74.678C68.7259 74.9953 69.1552 75.434 69.4539 75.994C69.7619 76.5447 69.9159 77.17 69.9159 77.87ZM68.5999 77.604C68.5999 77.1187 68.4926 76.7033 68.2779 76.358C68.0632 76.0033 67.7692 75.7373 67.3959 75.56C67.0319 75.3733 66.6259 75.28 66.1779 75.28C65.5339 75.28 64.9832 75.4853 64.5259 75.896C64.0779 76.3067 63.8212 76.876 63.7559 77.604H68.5999Z" fill="#A4A4A4"/>
</svg>
