<svg width="305" height="59" viewBox="0 0 305 59" fill="none" xmlns="http://www.w3.org/2000/svg">
<path d="M0.84 3.426C0.905333 2.56733 1.23667 1.89533 1.834 1.41C2.43133 0.924666 3.206 0.681999 4.158 0.681999C4.79267 0.681999 5.33867 0.798666 5.796 1.032C6.26267 1.256 6.61267 1.564 6.846 1.956C7.08867 2.348 7.21 2.79133 7.21 3.286C7.21 3.86467 7.042 4.364 6.706 4.784C6.37933 5.204 5.95 5.47467 5.418 5.596V5.666C6.02467 5.81533 6.50533 6.10933 6.86 6.548C7.21467 6.98667 7.392 7.56067 7.392 8.27C7.392 8.802 7.27067 9.28267 7.028 9.712C6.78533 10.132 6.42133 10.4633 5.936 10.706C5.45067 10.9487 4.86733 11.07 4.186 11.07C3.19667 11.07 2.38467 10.8133 1.75 10.3C1.11533 9.77733 0.760667 9.04 0.686 8.088H1.918C1.98333 8.648 2.212 9.10533 2.604 9.46C2.996 9.81467 3.51867 9.992 4.172 9.992C4.82533 9.992 5.32 9.824 5.656 9.488C6.00133 9.14267 6.174 8.69933 6.174 8.158C6.174 7.458 5.94067 6.954 5.474 6.646C5.00733 6.338 4.30267 6.184 3.36 6.184H3.038V5.12H3.374C4.23267 5.11067 4.88133 4.97067 5.32 4.7C5.75867 4.42 5.978 3.99067 5.978 3.412C5.978 2.91733 5.81467 2.52067 5.488 2.222C5.17067 1.92333 4.71333 1.774 4.116 1.774C3.53733 1.774 3.07067 1.92333 2.716 2.222C2.36133 2.52067 2.15133 2.922 2.086 3.426H0.84ZM8.77614 2.04V0.877999H11.4081V11H10.1201V2.04H8.77614ZM15.4445 5.736C14.9218 5.53067 14.5205 5.232 14.2405 4.84C13.9605 4.448 13.8205 3.972 13.8205 3.412C13.8205 2.908 13.9465 2.45533 14.1985 2.054C14.4505 1.64333 14.8238 1.32133 15.3185 1.088C15.8225 0.845333 16.4292 0.724 17.1385 0.724C17.8478 0.724 18.4498 0.845333 18.9445 1.088C19.4485 1.32133 19.8265 1.64333 20.0785 2.054C20.3398 2.45533 20.4705 2.908 20.4705 3.412C20.4705 3.95333 20.3258 4.42933 20.0365 4.84C19.7472 5.24133 19.3505 5.54 18.8465 5.736C19.4252 5.91333 19.8825 6.226 20.2185 6.674C20.5638 7.11267 20.7365 7.64467 20.7365 8.27C20.7365 8.87667 20.5872 9.40867 20.2885 9.866C19.9898 10.314 19.5652 10.664 19.0145 10.916C18.4732 11.1587 17.8478 11.28 17.1385 11.28C16.4292 11.28 15.8038 11.1587 15.2625 10.916C14.7305 10.664 14.3152 10.314 14.0165 9.866C13.7178 9.40867 13.5685 8.87667 13.5685 8.27C13.5685 7.64467 13.7365 7.108 14.0725 6.66C14.4085 6.212 14.8658 5.904 15.4445 5.736ZM19.2385 3.566C19.2385 2.99667 19.0518 2.558 18.6785 2.25C18.3052 1.942 17.7918 1.788 17.1385 1.788C16.4945 1.788 15.9858 1.942 15.6125 2.25C15.2392 2.558 15.0525 3.00133 15.0525 3.58C15.0525 4.10267 15.2438 4.52267 15.6265 4.84C16.0185 5.15733 16.5225 5.316 17.1385 5.316C17.7638 5.316 18.2678 5.15733 18.6505 4.84C19.0425 4.51333 19.2385 4.08867 19.2385 3.566ZM17.1385 6.296C16.4478 6.296 15.8832 6.45933 15.4445 6.786C15.0058 7.10333 14.7865 7.584 14.7865 8.228C14.7865 8.82533 14.9965 9.306 15.4165 9.67C15.8458 10.034 16.4198 10.216 17.1385 10.216C17.8572 10.216 18.4265 10.034 18.8465 9.67C19.2665 9.306 19.4765 8.82533 19.4765 8.228C19.4765 7.60267 19.2618 7.12667 18.8325 6.8C18.4032 6.464 17.8385 6.296 17.1385 6.296ZM22.0925 2.04V0.877999H24.7245V11H23.4365V2.04H22.0925ZM36.6233 8.83H32.3673L31.5833 11H30.2393L33.7673 1.298H35.2373L38.7513 11H37.4073L36.6233 8.83ZM36.2593 7.794L34.4953 2.866L32.7313 7.794H36.2593ZM41.5629 0.64V11H40.2889V0.64H41.5629ZM48.7407 1.242V11H47.4667V1.242H48.7407ZM60.138 3.188C60.7353 3.188 61.2673 3.314 61.734 3.566C62.2007 3.80867 62.5693 4.17733 62.84 4.672C63.1107 5.16667 63.246 5.76867 63.246 6.478V11H61.986V6.66C61.986 5.89467 61.7947 5.31133 61.412 4.91C61.0387 4.49933 60.53 4.294 59.886 4.294C59.2233 4.294 58.696 4.50867 58.304 4.938C57.912 5.358 57.716 5.96933 57.716 6.772V11H56.456V6.66C56.456 5.89467 56.2647 5.31133 55.882 4.91C55.5087 4.49933 55 4.294 54.356 4.294C53.6933 4.294 53.166 4.50867 52.774 4.938C52.382 5.358 52.186 5.96933 52.186 6.772V11H50.912V3.328H52.186V4.434C52.438 4.03267 52.774 3.72467 53.194 3.51C53.6233 3.29533 54.0947 3.188 54.608 3.188C55.252 3.188 55.8213 3.33267 56.316 3.622C56.8107 3.91133 57.1793 4.336 57.422 4.896C57.6367 4.35467 57.9913 3.93467 58.486 3.636C58.9807 3.33733 59.5313 3.188 60.138 3.188ZM64.8598 7.136C64.8598 6.352 65.0185 5.666 65.3358 5.078C65.6531 4.48067 66.0871 4.01867 66.6378 3.692C67.1978 3.36533 67.8185 3.202 68.4998 3.202C69.1718 3.202 69.7551 3.34667 70.2498 3.636C70.7445 3.92533 71.1131 4.28933 71.3558 4.728V3.328H72.6438V11H71.3558V9.572C71.1038 10.02 70.7258 10.3933 70.2218 10.692C69.7271 10.9813 69.1485 11.126 68.4858 11.126C67.8045 11.126 67.1885 10.958 66.6378 10.622C66.0871 10.286 65.6531 9.81467 65.3358 9.208C65.0185 8.60133 64.8598 7.91067 64.8598 7.136ZM71.3558 7.15C71.3558 6.57133 71.2391 6.06733 71.0058 5.638C70.7725 5.20867 70.4551 4.882 70.0538 4.658C69.6618 4.42467 69.2278 4.308 68.7518 4.308C68.2758 4.308 67.8418 4.42 67.4498 4.644C67.0578 4.868 66.7451 5.19467 66.5118 5.624C66.2785 6.05333 66.1618 6.55733 66.1618 7.136C66.1618 7.724 66.2785 8.23733 66.5118 8.676C66.7451 9.10533 67.0578 9.43667 67.4498 9.67C67.8418 9.894 68.2758 10.006 68.7518 10.006C69.2278 10.006 69.6618 9.894 70.0538 9.67C70.4551 9.43667 70.7725 9.10533 71.0058 8.676C71.2391 8.23733 71.3558 7.72867 71.3558 7.15ZM84.0228 3.188C84.6201 3.188 85.1521 3.314 85.6188 3.566C86.0854 3.80867 86.4541 4.17733 86.7248 4.672C86.9954 5.16667 87.1308 5.76867 87.1308 6.478V11H85.8708V6.66C85.8708 5.89467 85.6794 5.31133 85.2968 4.91C84.9234 4.49933 84.4148 4.294 83.7708 4.294C83.1081 4.294 82.5808 4.50867 82.1888 4.938C81.7968 5.358 81.6008 5.96933 81.6008 6.772V11H80.3408V6.66C80.3408 5.89467 80.1494 5.31133 79.7668 4.91C79.3934 4.49933 78.8848 4.294 78.2408 4.294C77.5781 4.294 77.0508 4.50867 76.6588 4.938C76.2668 5.358 76.0708 5.96933 76.0708 6.772V11H74.7968V3.328H76.0708V4.434C76.3228 4.03267 76.6588 3.72467 77.0788 3.51C77.5081 3.29533 77.9794 3.188 78.4928 3.188C79.1368 3.188 79.7061 3.33267 80.2008 3.622C80.6954 3.91133 81.0641 4.336 81.3068 4.896C81.5214 4.35467 81.8761 3.93467 82.3708 3.636C82.8654 3.33733 83.4161 3.188 84.0228 3.188ZM96.047 11.098C95.403 11.098 94.8243 10.986 94.311 10.762C93.807 10.5287 93.4103 10.2113 93.121 9.81C92.8317 9.39933 92.6823 8.928 92.673 8.396H94.031C94.0777 8.85333 94.2643 9.24067 94.591 9.558C94.927 9.866 95.4123 10.02 96.047 10.02C96.6537 10.02 97.1297 9.87067 97.475 9.572C97.8297 9.264 98.007 8.872 98.007 8.396C98.007 8.02267 97.9043 7.71933 97.699 7.486C97.4937 7.25267 97.237 7.07533 96.929 6.954C96.621 6.83267 96.2057 6.702 95.683 6.562C95.039 6.394 94.521 6.226 94.129 6.058C93.7463 5.89 93.415 5.62867 93.135 5.274C92.8643 4.91 92.729 4.42467 92.729 3.818C92.729 3.286 92.8643 2.81467 93.135 2.404C93.4057 1.99333 93.7837 1.676 94.269 1.452C94.7637 1.228 95.3283 1.116 95.963 1.116C96.8777 1.116 97.6243 1.34467 98.203 1.802C98.791 2.25933 99.1223 2.866 99.197 3.622H97.797C97.7503 3.24867 97.5543 2.922 97.209 2.642C96.8637 2.35267 96.4063 2.208 95.837 2.208C95.305 2.208 94.871 2.348 94.535 2.628C94.199 2.89867 94.031 3.28133 94.031 3.776C94.031 4.13067 94.129 4.42 94.325 4.644C94.5303 4.868 94.7777 5.04067 95.067 5.162C95.3657 5.274 95.781 5.40467 96.313 5.554C96.957 5.73133 97.475 5.90867 97.867 6.086C98.259 6.254 98.595 6.52 98.875 6.884C99.155 7.23867 99.295 7.724 99.295 8.34C99.295 8.816 99.169 9.264 98.917 9.684C98.665 10.104 98.2917 10.4447 97.797 10.706C97.3023 10.9673 96.719 11.098 96.047 11.098ZM100.694 7.136C100.694 6.352 100.852 5.666 101.17 5.078C101.487 4.48067 101.921 4.01867 102.472 3.692C103.032 3.36533 103.652 3.202 104.334 3.202C105.006 3.202 105.589 3.34667 106.084 3.636C106.578 3.92533 106.947 4.28933 107.19 4.728V3.328H108.478V11H107.19V9.572C106.938 10.02 106.56 10.3933 106.056 10.692C105.561 10.9813 104.982 11.126 104.32 11.126C103.638 11.126 103.022 10.958 102.472 10.622C101.921 10.286 101.487 9.81467 101.17 9.208C100.852 8.60133 100.694 7.91067 100.694 7.136ZM107.19 7.15C107.19 6.57133 107.073 6.06733 106.84 5.638C106.606 5.20867 106.289 4.882 105.888 4.658C105.496 4.42467 105.062 4.308 104.586 4.308C104.11 4.308 103.676 4.42 103.284 4.644C102.892 4.868 102.579 5.19467 102.346 5.624C102.112 6.05333 101.996 6.55733 101.996 7.136C101.996 7.724 102.112 8.23733 102.346 8.676C102.579 9.10533 102.892 9.43667 103.284 9.67C103.676 9.894 104.11 10.006 104.586 10.006C105.062 10.006 105.496 9.894 105.888 9.67C106.289 9.43667 106.606 9.10533 106.84 8.676C107.073 8.23733 107.19 7.72867 107.19 7.15ZM117.435 3.328V11H116.161V9.866C115.918 10.258 115.577 10.566 115.139 10.79C114.709 11.0047 114.233 11.112 113.711 11.112C113.113 11.112 112.577 10.9907 112.101 10.748C111.625 10.496 111.247 10.1227 110.967 9.628C110.696 9.13333 110.561 8.53133 110.561 7.822V3.328H111.821V7.654C111.821 8.41 112.012 8.99333 112.395 9.404C112.777 9.80533 113.3 10.006 113.963 10.006C114.644 10.006 115.181 9.796 115.573 9.376C115.965 8.956 116.161 8.34467 116.161 7.542V3.328H117.435ZM119.11 7.136C119.11 6.352 119.268 5.666 119.586 5.078C119.903 4.48067 120.337 4.01867 120.888 3.692C121.448 3.36533 122.073 3.202 122.764 3.202C123.361 3.202 123.916 3.342 124.43 3.622C124.943 3.89267 125.335 4.252 125.606 4.7V0.64H126.894V11H125.606V9.558C125.354 10.0153 124.98 10.3933 124.486 10.692C123.991 10.9813 123.412 11.126 122.75 11.126C122.068 11.126 121.448 10.958 120.888 10.622C120.337 10.286 119.903 9.81467 119.586 9.208C119.268 8.60133 119.11 7.91067 119.11 7.136ZM125.606 7.15C125.606 6.57133 125.489 6.06733 125.256 5.638C125.022 5.20867 124.705 4.882 124.304 4.658C123.912 4.42467 123.478 4.308 123.002 4.308C122.526 4.308 122.092 4.42 121.7 4.644C121.308 4.868 120.995 5.19467 120.762 5.624C120.528 6.05333 120.412 6.55733 120.412 7.136C120.412 7.724 120.528 8.23733 120.762 8.676C120.995 9.10533 121.308 9.43667 121.7 9.67C122.092 9.894 122.526 10.006 123.002 10.006C123.478 10.006 123.912 9.894 124.304 9.67C124.705 9.43667 125.022 9.10533 125.256 8.676C125.489 8.23733 125.606 7.72867 125.606 7.15ZM134.053 1.242V11H132.779V1.242H134.053ZM137.498 4.756C137.76 4.29867 138.142 3.92533 138.646 3.636C139.15 3.34667 139.724 3.202 140.368 3.202C141.059 3.202 141.68 3.36533 142.23 3.692C142.781 4.01867 143.215 4.48067 143.532 5.078C143.85 5.666 144.008 6.352 144.008 7.136C144.008 7.91067 143.85 8.60133 143.532 9.208C143.215 9.81467 142.776 10.286 142.216 10.622C141.666 10.958 141.05 11.126 140.368 11.126C139.706 11.126 139.122 10.9813 138.618 10.692C138.124 10.4027 137.75 10.034 137.498 9.586V11H136.224V0.64H137.498V4.756ZM142.706 7.136C142.706 6.55733 142.59 6.05333 142.356 5.624C142.123 5.19467 141.806 4.868 141.404 4.644C141.012 4.42 140.578 4.308 140.102 4.308C139.636 4.308 139.202 4.42467 138.8 4.658C138.408 4.882 138.091 5.21333 137.848 5.652C137.615 6.08133 137.498 6.58067 137.498 7.15C137.498 7.72867 137.615 8.23733 137.848 8.676C138.091 9.10533 138.408 9.43667 138.8 9.67C139.202 9.894 139.636 10.006 140.102 10.006C140.578 10.006 141.012 9.894 141.404 9.67C141.806 9.43667 142.123 9.10533 142.356 8.676C142.59 8.23733 142.706 7.724 142.706 7.136ZM149.423 3.188C150.357 3.188 151.113 3.47267 151.691 4.042C152.27 4.602 152.559 5.414 152.559 6.478V11H151.299V6.66C151.299 5.89467 151.108 5.31133 150.725 4.91C150.343 4.49933 149.82 4.294 149.157 4.294C148.485 4.294 147.949 4.504 147.547 4.924C147.155 5.344 146.959 5.95533 146.959 6.758V11H145.685V3.328H146.959V4.42C147.211 4.028 147.552 3.72467 147.981 3.51C148.42 3.29533 148.901 3.188 149.423 3.188ZM164.141 8.83H159.885L159.101 11H157.757L161.285 1.298H162.755L166.269 11H164.925L164.141 8.83ZM163.777 7.794L162.013 2.866L160.249 7.794H163.777ZM169.081 4.756C169.342 4.29867 169.725 3.92533 170.229 3.636C170.733 3.34667 171.307 3.202 171.951 3.202C172.641 3.202 173.262 3.36533 173.813 3.692C174.363 4.01867 174.797 4.48067 175.115 5.078C175.432 5.666 175.591 6.352 175.591 7.136C175.591 7.91067 175.432 8.60133 175.115 9.208C174.797 9.81467 174.359 10.286 173.799 10.622C173.248 10.958 172.632 11.126 171.951 11.126C171.288 11.126 170.705 10.9813 170.201 10.692C169.706 10.4027 169.333 10.034 169.081 9.586V11H167.807V0.64H169.081V4.756ZM174.289 7.136C174.289 6.55733 174.172 6.05333 173.939 5.624C173.705 5.19467 173.388 4.868 172.987 4.644C172.595 4.42 172.161 4.308 171.685 4.308C171.218 4.308 170.784 4.42467 170.383 4.658C169.991 4.882 169.673 5.21333 169.431 5.652C169.197 6.08133 169.081 6.58067 169.081 7.15C169.081 7.72867 169.197 8.23733 169.431 8.676C169.673 9.10533 169.991 9.43667 170.383 9.67C170.784 9.894 171.218 10.006 171.685 10.006C172.161 10.006 172.595 9.894 172.987 9.67C173.388 9.43667 173.705 9.10533 173.939 8.676C174.172 8.23733 174.289 7.724 174.289 7.136ZM176.791 7.136C176.791 6.352 176.95 5.666 177.267 5.078C177.585 4.48067 178.019 4.01867 178.569 3.692C179.129 3.36533 179.755 3.202 180.445 3.202C181.043 3.202 181.598 3.342 182.111 3.622C182.625 3.89267 183.017 4.252 183.287 4.7V0.64H184.575V11H183.287V9.558C183.035 10.0153 182.662 10.3933 182.167 10.692C181.673 10.9813 181.094 11.126 180.431 11.126C179.75 11.126 179.129 10.958 178.569 10.622C178.019 10.286 177.585 9.81467 177.267 9.208C176.95 8.60133 176.791 7.91067 176.791 7.136ZM183.287 7.15C183.287 6.57133 183.171 6.06733 182.937 5.638C182.704 5.20867 182.387 4.882 181.985 4.658C181.593 4.42467 181.159 4.308 180.683 4.308C180.207 4.308 179.773 4.42 179.381 4.644C178.989 4.868 178.677 5.19467 178.443 5.624C178.21 6.05333 178.093 6.55733 178.093 7.136C178.093 7.724 178.21 8.23733 178.443 8.676C178.677 9.10533 178.989 9.43667 179.381 9.67C179.773 9.894 180.207 10.006 180.683 10.006C181.159 10.006 181.593 9.894 181.985 9.67C182.387 9.43667 182.704 9.10533 182.937 8.676C183.171 8.23733 183.287 7.72867 183.287 7.15ZM193.532 3.328V11H192.258V9.866C192.016 10.258 191.675 10.566 191.236 10.79C190.807 11.0047 190.331 11.112 189.808 11.112C189.211 11.112 188.674 10.9907 188.198 10.748C187.722 10.496 187.344 10.1227 187.064 9.628C186.794 9.13333 186.658 8.53133 186.658 7.822V3.328H187.918V7.654C187.918 8.41 188.11 8.99333 188.492 9.404C188.875 9.80533 189.398 10.006 190.06 10.006C190.742 10.006 191.278 9.796 191.67 9.376C192.062 8.956 192.258 8.34467 192.258 7.542V3.328H193.532ZM196.957 0.64V11H195.683V0.64H196.957ZM208.629 8.83H204.373L203.589 11H202.245L205.773 1.298H207.243L210.757 11H209.413L208.629 8.83ZM208.265 7.794L206.501 2.866L204.737 7.794H208.265ZM213.247 9.95H217.013V11H211.791V9.95L215.515 4.364H211.819V3.328H216.985V4.364L213.247 9.95ZM219.324 2.082C219.081 2.082 218.876 1.998 218.708 1.83C218.54 1.662 218.456 1.45667 218.456 1.214C218.456 0.971333 218.54 0.766 218.708 0.598C218.876 0.43 219.081 0.345999 219.324 0.345999C219.557 0.345999 219.753 0.43 219.912 0.598C220.08 0.766 220.164 0.971333 220.164 1.214C220.164 1.45667 220.08 1.662 219.912 1.83C219.753 1.998 219.557 2.082 219.324 2.082ZM219.94 3.328V11H218.666V3.328H219.94ZM223.063 9.95H226.829V11H221.607V9.95L225.331 4.364H221.635V3.328H226.801V4.364L223.063 9.95ZM237.101 5.974C237.455 6.03 237.777 6.17467 238.067 6.408C238.365 6.64133 238.599 6.93067 238.767 7.276C238.944 7.62133 239.033 7.99 239.033 8.382C239.033 8.87667 238.907 9.32467 238.655 9.726C238.403 10.118 238.034 10.4307 237.549 10.664C237.073 10.888 236.508 11 235.855 11H232.215V1.242H235.715C236.377 1.242 236.942 1.354 237.409 1.578C237.875 1.79267 238.225 2.08667 238.459 2.46C238.692 2.83333 238.809 3.25333 238.809 3.72C238.809 4.29867 238.65 4.77933 238.333 5.162C238.025 5.53533 237.614 5.806 237.101 5.974ZM233.489 5.456H235.631C236.228 5.456 236.69 5.316 237.017 5.036C237.343 4.756 237.507 4.36867 237.507 3.874C237.507 3.37933 237.343 2.992 237.017 2.712C236.69 2.432 236.219 2.292 235.603 2.292H233.489V5.456ZM235.743 9.95C236.377 9.95 236.872 9.80067 237.227 9.502C237.581 9.20333 237.759 8.788 237.759 8.256C237.759 7.71467 237.572 7.29 237.199 6.982C236.825 6.66467 236.326 6.506 235.701 6.506H233.489V9.95H235.743ZM242.075 4.574C242.299 4.13533 242.616 3.79467 243.027 3.552C243.447 3.30933 243.955 3.188 244.553 3.188V4.504H244.217C242.789 4.504 242.075 5.27867 242.075 6.828V11H240.801V3.328H242.075V4.574ZM245.547 7.136C245.547 6.352 245.706 5.666 246.023 5.078C246.341 4.48067 246.775 4.01867 247.325 3.692C247.885 3.36533 248.506 3.202 249.187 3.202C249.859 3.202 250.443 3.34667 250.937 3.636C251.432 3.92533 251.801 4.28933 252.043 4.728V3.328H253.331V11H252.043V9.572C251.791 10.02 251.413 10.3933 250.909 10.692C250.415 10.9813 249.836 11.126 249.173 11.126C248.492 11.126 247.876 10.958 247.325 10.622C246.775 10.286 246.341 9.81467 246.023 9.208C245.706 8.60133 245.547 7.91067 245.547 7.136ZM252.043 7.15C252.043 6.57133 251.927 6.06733 251.693 5.638C251.46 5.20867 251.143 4.882 250.741 4.658C250.349 4.42467 249.915 4.308 249.439 4.308C248.963 4.308 248.529 4.42 248.137 4.644C247.745 4.868 247.433 5.19467 247.199 5.624C246.966 6.05333 246.849 6.55733 246.849 7.136C246.849 7.724 246.966 8.23733 247.199 8.676C247.433 9.10533 247.745 9.43667 248.137 9.67C248.529 9.894 248.963 10.006 249.439 10.006C249.915 10.006 250.349 9.894 250.741 9.67C251.143 9.43667 251.46 9.10533 251.693 8.676C251.927 8.23733 252.043 7.72867 252.043 7.15ZM259.222 3.188C260.156 3.188 260.912 3.47267 261.49 4.042C262.069 4.602 262.358 5.414 262.358 6.478V11H261.098V6.66C261.098 5.89467 260.907 5.31133 260.524 4.91C260.142 4.49933 259.619 4.294 258.956 4.294C258.284 4.294 257.748 4.504 257.346 4.924C256.954 5.344 256.758 5.95533 256.758 6.758V11H255.484V3.328H256.758V4.42C257.01 4.028 257.351 3.72467 257.78 3.51C258.219 3.29533 258.7 3.188 259.222 3.188ZM263.963 7.15C263.963 6.35667 264.122 5.666 264.439 5.078C264.757 4.48067 265.195 4.01867 265.755 3.692C266.325 3.36533 266.973 3.202 267.701 3.202C268.644 3.202 269.419 3.43067 270.025 3.888C270.641 4.34533 271.047 4.98 271.243 5.792H269.871C269.741 5.32533 269.484 4.95667 269.101 4.686C268.728 4.41533 268.261 4.28 267.701 4.28C266.973 4.28 266.385 4.532 265.937 5.036C265.489 5.53067 265.265 6.23533 265.265 7.15C265.265 8.074 265.489 8.788 265.937 9.292C266.385 9.796 266.973 10.048 267.701 10.048C268.261 10.048 268.728 9.91733 269.101 9.656C269.475 9.39467 269.731 9.02133 269.871 8.536H271.243C271.038 9.32 270.627 9.95 270.011 10.426C269.395 10.8927 268.625 11.126 267.701 11.126C266.973 11.126 266.325 10.9627 265.755 10.636C265.195 10.3093 264.757 9.84733 264.439 9.25C264.122 8.65267 263.963 7.95267 263.963 7.15ZM276.751 3.188C277.33 3.188 277.853 3.314 278.319 3.566C278.786 3.80867 279.15 4.17733 279.411 4.672C279.682 5.16667 279.817 5.76867 279.817 6.478V11H278.557V6.66C278.557 5.89467 278.366 5.31133 277.983 4.91C277.601 4.49933 277.078 4.294 276.415 4.294C275.743 4.294 275.207 4.504 274.805 4.924C274.413 5.344 274.217 5.95533 274.217 6.758V11H272.943V0.64H274.217V4.42C274.469 4.028 274.815 3.72467 275.253 3.51C275.701 3.29533 276.201 3.188 276.751 3.188ZM290.769 11L288.445 7.01H286.905V11H285.631V1.242H288.781C289.518 1.242 290.139 1.368 290.643 1.62C291.156 1.872 291.539 2.21267 291.791 2.642C292.043 3.07133 292.169 3.56133 292.169 4.112C292.169 4.784 291.973 5.37667 291.581 5.89C291.198 6.40333 290.619 6.744 289.845 6.912L292.295 11H290.769ZM286.905 5.988H288.781C289.471 5.988 289.989 5.82 290.335 5.484C290.68 5.13867 290.853 4.68133 290.853 4.112C290.853 3.53333 290.68 3.08533 290.335 2.768C289.999 2.45067 289.481 2.292 288.781 2.292H286.905V5.988ZM293.672 7.136C293.672 6.352 293.831 5.666 294.148 5.078C294.466 4.48067 294.9 4.01867 295.45 3.692C296.01 3.36533 296.636 3.202 297.326 3.202C297.924 3.202 298.479 3.342 298.992 3.622C299.506 3.89267 299.898 4.252 300.168 4.7V0.64H301.456V11H300.168V9.558C299.916 10.0153 299.543 10.3933 299.048 10.692C298.554 10.9813 297.975 11.126 297.312 11.126C296.631 11.126 296.01 10.958 295.45 10.622C294.9 10.286 294.466 9.81467 294.148 9.208C293.831 8.60133 293.672 7.91067 293.672 7.136ZM300.168 7.15C300.168 6.57133 300.052 6.06733 299.818 5.638C299.585 5.20867 299.268 4.882 298.866 4.658C298.474 4.42467 298.04 4.308 297.564 4.308C297.088 4.308 296.654 4.42 296.262 4.644C295.87 4.868 295.558 5.19467 295.324 5.624C295.091 6.05333 294.974 6.55733 294.974 7.136C294.974 7.724 295.091 8.23733 295.324 8.676C295.558 9.10533 295.87 9.43667 296.262 9.67C296.654 9.894 297.088 10.006 297.564 10.006C298.04 10.006 298.474 9.894 298.866 9.67C299.268 9.43667 299.585 9.10533 299.818 8.676C300.052 8.23733 300.168 7.72867 300.168 7.15ZM304.925 9.236L303.357 13.002H302.503L303.525 9.236H304.925ZM6.846 32.83H2.59L1.806 35H0.462L3.99 25.298H5.46L8.974 35H7.63L6.846 32.83ZM6.482 31.794L4.718 26.866L2.954 31.794H6.482ZM14.2496 27.188C15.1829 27.188 15.9389 27.4727 16.5176 28.042C17.0963 28.602 17.3856 29.414 17.3856 30.478V35H16.1256V30.66C16.1256 29.8947 15.9343 29.3113 15.5516 28.91C15.1689 28.4993 14.6463 28.294 13.9836 28.294C13.3116 28.294 12.7749 28.504 12.3736 28.924C11.9816 29.344 11.7856 29.9553 11.7856 30.758V35H10.5116V27.328H11.7856V28.42C12.0376 28.028 12.3783 27.7247 12.8076 27.51C13.2463 27.2953 13.7269 27.188 14.2496 27.188ZM30.8711 35H29.5971L24.4731 27.23V35H23.1991V25.228H24.4731L29.5971 32.984V25.228H30.8711V35ZM39.8468 27.328V35H38.5728V33.866C38.3302 34.258 37.9895 34.566 37.5508 34.79C37.1215 35.0047 36.6455 35.112 36.1228 35.112C35.5255 35.112 34.9888 34.9907 34.5128 34.748C34.0368 34.496 33.6588 34.1227 33.3788 33.628C33.1082 33.1333 32.9728 32.5313 32.9728 31.822V27.328H34.2328V31.654C34.2328 32.41 34.4242 32.9933 34.8068 33.404C35.1895 33.8053 35.7122 34.006 36.3748 34.006C37.0562 34.006 37.5928 33.796 37.9848 33.376C38.3768 32.956 38.5728 32.3447 38.5728 31.542V27.328H39.8468ZM42.9499 33.95H46.7159V35H41.4939V33.95L45.2179 28.364H41.5219V27.328H46.6879V28.364L42.9499 33.95ZM52.177 27.188C52.7557 27.188 53.2783 27.314 53.745 27.566C54.2117 27.8087 54.5757 28.1773 54.837 28.672C55.1077 29.1667 55.243 29.7687 55.243 30.478V35H53.983V30.66C53.983 29.8947 53.7917 29.3113 53.409 28.91C53.0263 28.4993 52.5037 28.294 51.841 28.294C51.169 28.294 50.6323 28.504 50.231 28.924C49.839 29.344 49.643 29.9553 49.643 30.758V35H48.369V24.64H49.643V28.42C49.895 28.028 50.2403 27.7247 50.679 27.51C51.127 27.2953 51.6263 27.188 52.177 27.188ZM56.8481 31.136C56.8481 30.352 57.0068 29.666 57.3241 29.078C57.6414 28.4807 58.0754 28.0187 58.6261 27.692C59.1861 27.3653 59.8068 27.202 60.4881 27.202C61.1601 27.202 61.7434 27.3467 62.2381 27.636C62.7328 27.9253 63.1014 28.2893 63.3441 28.728V27.328H64.6321V35H63.3441V33.572C63.0921 34.02 62.7141 34.3933 62.2101 34.692C61.7154 34.9813 61.1368 35.126 60.4741 35.126C59.7928 35.126 59.1768 34.958 58.6261 34.622C58.0754 34.286 57.6414 33.8147 57.3241 33.208C57.0068 32.6013 56.8481 31.9107 56.8481 31.136ZM63.3441 31.15C63.3441 30.5713 63.2274 30.0673 62.9941 29.638C62.7608 29.2087 62.4434 28.882 62.0421 28.658C61.6501 28.4247 61.2161 28.308 60.7401 28.308C60.2641 28.308 59.8301 28.42 59.4381 28.644C59.0461 28.868 58.7334 29.1947 58.5001 29.624C58.2668 30.0533 58.1501 30.5573 58.1501 31.136C58.1501 31.724 58.2668 32.2373 58.5001 32.676C58.7334 33.1053 59.0461 33.4367 59.4381 33.67C59.8301 33.894 60.2641 34.006 60.7401 34.006C61.2161 34.006 61.6501 33.894 62.0421 33.67C62.4434 33.4367 62.7608 33.1053 62.9941 32.676C63.2274 32.2373 63.3441 31.7287 63.3441 31.15ZM70.593 27.188C71.1717 27.188 71.6944 27.314 72.161 27.566C72.6277 27.8087 72.9917 28.1773 73.253 28.672C73.5237 29.1667 73.659 29.7687 73.659 30.478V35H72.399V30.66C72.399 29.8947 72.2077 29.3113 71.825 28.91C71.4424 28.4993 70.9197 28.294 70.257 28.294C69.585 28.294 69.0484 28.504 68.647 28.924C68.255 29.344 68.059 29.9553 68.059 30.758V35H66.785V24.64H68.059V28.42C68.311 28.028 68.6564 27.7247 69.095 27.51C69.543 27.2953 70.0424 27.188 70.593 27.188ZM77.0561 33.236L75.4881 37.002H74.6341L75.6561 33.236H77.0561ZM87.3859 35L85.0619 31.01H83.5219V35H82.2479V25.242H85.3979C86.1353 25.242 86.7559 25.368 87.2599 25.62C87.7733 25.872 88.1559 26.2127 88.4079 26.642C88.6599 27.0713 88.7859 27.5613 88.7859 28.112C88.7859 28.784 88.5899 29.3767 88.1979 29.89C87.8153 30.4033 87.2366 30.744 86.4619 30.912L88.9119 35H87.3859ZM83.5219 29.988H85.3979C86.0886 29.988 86.6066 29.82 86.9519 29.484C87.2973 29.1387 87.4699 28.6813 87.4699 28.112C87.4699 27.5333 87.2973 27.0853 86.9519 26.768C86.6159 26.4507 86.0979 26.292 85.3979 26.292H83.5219V29.988ZM91.4235 26.082C91.1808 26.082 90.9755 25.998 90.8075 25.83C90.6395 25.662 90.5555 25.4567 90.5555 25.214C90.5555 24.9713 90.6395 24.766 90.8075 24.598C90.9755 24.43 91.1808 24.346 91.4235 24.346C91.6568 24.346 91.8528 24.43 92.0115 24.598C92.1795 24.766 92.2635 24.9713 92.2635 25.214C92.2635 25.4567 92.1795 25.662 92.0115 25.83C91.8528 25.998 91.6568 26.082 91.4235 26.082ZM92.0395 27.328V35H90.7655V27.328H92.0395ZM100.819 27.328L96.1988 38.612H94.8828L96.3948 34.916L93.3008 27.328H94.7148L97.1228 33.544L99.5028 27.328H100.819ZM101.623 31.136C101.623 30.352 101.782 29.666 102.099 29.078C102.417 28.4807 102.851 28.0187 103.401 27.692C103.961 27.3653 104.582 27.202 105.263 27.202C105.935 27.202 106.519 27.3467 107.013 27.636C107.508 27.9253 107.877 28.2893 108.119 28.728V27.328H109.407V35H108.119V33.572C107.867 34.02 107.489 34.3933 106.985 34.692C106.491 34.9813 105.912 35.126 105.249 35.126C104.568 35.126 103.952 34.958 103.401 34.622C102.851 34.286 102.417 33.8147 102.099 33.208C101.782 32.6013 101.623 31.9107 101.623 31.136ZM108.119 31.15C108.119 30.5713 108.003 30.0673 107.769 29.638C107.536 29.2087 107.219 28.882 106.817 28.658C106.425 28.4247 105.991 28.308 105.515 28.308C105.039 28.308 104.605 28.42 104.213 28.644C103.821 28.868 103.509 29.1947 103.275 29.624C103.042 30.0533 102.925 30.5573 102.925 31.136C102.925 31.724 103.042 32.2373 103.275 32.676C103.509 33.1053 103.821 33.4367 104.213 33.67C104.605 33.894 105.039 34.006 105.515 34.006C105.991 34.006 106.425 33.894 106.817 33.67C107.219 33.4367 107.536 33.1053 107.769 32.676C108.003 32.2373 108.119 31.7287 108.119 31.15ZM111.084 31.136C111.084 30.352 111.243 29.666 111.56 29.078C111.878 28.4807 112.312 28.0187 112.862 27.692C113.422 27.3653 114.048 27.202 114.738 27.202C115.336 27.202 115.891 27.342 116.404 27.622C116.918 27.8927 117.31 28.252 117.58 28.7V24.64H118.868V35H117.58V33.558C117.328 34.0153 116.955 34.3933 116.46 34.692C115.966 34.9813 115.387 35.126 114.724 35.126C114.043 35.126 113.422 34.958 112.862 34.622C112.312 34.286 111.878 33.8147 111.56 33.208C111.243 32.6013 111.084 31.9107 111.084 31.136ZM117.58 31.15C117.58 30.5713 117.464 30.0673 117.23 29.638C116.997 29.2087 116.68 28.882 116.278 28.658C115.886 28.4247 115.452 28.308 114.976 28.308C114.5 28.308 114.066 28.42 113.674 28.644C113.282 28.868 112.97 29.1947 112.736 29.624C112.503 30.0533 112.386 30.5573 112.386 31.136C112.386 31.724 112.503 32.2373 112.736 32.676C112.97 33.1053 113.282 33.4367 113.674 33.67C114.066 33.894 114.5 34.006 114.976 34.006C115.452 34.006 115.886 33.894 116.278 33.67C116.68 33.4367 116.997 33.1053 117.23 32.676C117.464 32.2373 117.58 31.7287 117.58 31.15ZM124.829 27.188C125.408 27.188 125.931 27.314 126.397 27.566C126.864 27.8087 127.228 28.1773 127.489 28.672C127.76 29.1667 127.895 29.7687 127.895 30.478V35H126.635V30.66C126.635 29.8947 126.444 29.3113 126.061 28.91C125.679 28.4993 125.156 28.294 124.493 28.294C123.821 28.294 123.285 28.504 122.883 28.924C122.491 29.344 122.295 29.9553 122.295 30.758V35H121.021V24.64H122.295V28.42C122.547 28.028 122.893 27.7247 123.331 27.51C123.779 27.2953 124.279 27.188 124.829 27.188ZM133.163 26.04V24.878H135.795V35H134.507V26.04H133.163ZM137.829 33.978C139.015 33.026 139.943 32.2467 140.615 31.64C141.287 31.024 141.852 30.3847 142.309 29.722C142.776 29.05 143.009 28.392 143.009 27.748C143.009 27.1413 142.86 26.6653 142.561 26.32C142.272 25.9653 141.801 25.788 141.147 25.788C140.513 25.788 140.018 25.9887 139.663 26.39C139.318 26.782 139.131 27.3093 139.103 27.972H137.871C137.909 26.9267 138.226 26.1193 138.823 25.55C139.421 24.9807 140.191 24.696 141.133 24.696C142.095 24.696 142.855 24.962 143.415 25.494C143.985 26.026 144.269 26.7587 144.269 27.692C144.269 28.4667 144.036 29.2227 143.569 29.96C143.112 30.688 142.589 31.332 142.001 31.892C141.413 32.4427 140.662 33.0867 139.747 33.824H144.563V34.888H137.829V33.978ZM145.728 32.746V31.78L150.642 24.976H152.168V31.64H153.568V32.746H152.168V35H150.908V32.746H145.728ZM150.964 26.306L147.198 31.64H150.964V26.306ZM161.071 25.872L157.179 35H155.891L159.839 25.998H154.435V24.906H161.071V25.872ZM162.175 32.746V31.78L167.089 24.976H168.615V31.64H170.015V32.746H168.615V35H167.355V32.746H162.175ZM167.411 26.306L163.645 31.64H167.411V26.306ZM172.814 33.236L171.246 37.002H170.392L171.414 33.236H172.814ZM4.172 58.098C3.528 58.098 2.94933 57.986 2.436 57.762C1.932 57.5287 1.53533 57.2113 1.246 56.81C0.956667 56.3993 0.807333 55.928 0.798 55.396H2.156C2.20267 55.8533 2.38933 56.2407 2.716 56.558C3.052 56.866 3.53733 57.02 4.172 57.02C4.77867 57.02 5.25467 56.8707 5.6 56.572C5.95467 56.264 6.132 55.872 6.132 55.396C6.132 55.0227 6.02933 54.7193 5.824 54.486C5.61867 54.2527 5.362 54.0753 5.054 53.954C4.746 53.8327 4.33067 53.702 3.808 53.562C3.164 53.394 2.646 53.226 2.254 53.058C1.87133 52.89 1.54 52.6287 1.26 52.274C0.989333 51.91 0.854 51.4247 0.854 50.818C0.854 50.286 0.989333 49.8147 1.26 49.404C1.53067 48.9933 1.90867 48.676 2.394 48.452C2.88867 48.228 3.45333 48.116 4.088 48.116C5.00267 48.116 5.74933 48.3447 6.328 48.802C6.916 49.2593 7.24733 49.866 7.322 50.622H5.922C5.87533 50.2487 5.67933 49.922 5.334 49.642C4.98867 49.3527 4.53133 49.208 3.962 49.208C3.43 49.208 2.996 49.348 2.66 49.628C2.324 49.8987 2.156 50.2813 2.156 50.776C2.156 51.1307 2.254 51.42 2.45 51.644C2.65533 51.868 2.90267 52.0407 3.192 52.162C3.49067 52.274 3.906 52.4047 4.438 52.554C5.082 52.7313 5.6 52.9087 5.992 53.086C6.384 53.254 6.72 53.52 7 53.884C7.28 54.2387 7.42 54.724 7.42 55.34C7.42 55.816 7.294 56.264 7.042 56.684C6.79 57.104 6.41667 57.4447 5.922 57.706C5.42733 57.9673 4.844 58.098 4.172 58.098ZM8.8188 54.136C8.8188 53.352 8.97746 52.666 9.2948 52.078C9.61213 51.4807 10.0461 51.0187 10.5968 50.692C11.1568 50.3653 11.7775 50.202 12.4588 50.202C13.1308 50.202 13.7141 50.3467 14.2088 50.636C14.7035 50.9253 15.0721 51.2893 15.3148 51.728V50.328H16.6028V58H15.3148V56.572C15.0628 57.02 14.6848 57.3933 14.1808 57.692C13.6861 57.9813 13.1075 58.126 12.4448 58.126C11.7635 58.126 11.1475 57.958 10.5968 57.622C10.0461 57.286 9.61213 56.8147 9.2948 56.208C8.97746 55.6013 8.8188 54.9107 8.8188 54.136ZM15.3148 54.15C15.3148 53.5713 15.1981 53.0673 14.9648 52.638C14.7315 52.2087 14.4141 51.882 14.0128 51.658C13.6208 51.4247 13.1868 51.308 12.7108 51.308C12.2348 51.308 11.8008 51.42 11.4088 51.644C11.0168 51.868 10.7041 52.1947 10.4708 52.624C10.2375 53.0533 10.1208 53.5573 10.1208 54.136C10.1208 54.724 10.2375 55.2373 10.4708 55.676C10.7041 56.1053 11.0168 56.4367 11.4088 56.67C11.8008 56.894 12.2348 57.006 12.7108 57.006C13.1868 57.006 13.6208 56.894 14.0128 56.67C14.4141 56.4367 14.7315 56.1053 14.9648 55.676C15.1981 55.2373 15.3148 54.7287 15.3148 54.15ZM25.5597 50.328V58H24.2857V56.866C24.0431 57.258 23.7024 57.566 23.2637 57.79C22.8344 58.0047 22.3584 58.112 21.8357 58.112C21.2384 58.112 20.7017 57.9907 20.2257 57.748C19.7497 57.496 19.3717 57.1227 19.0917 56.628C18.8211 56.1333 18.6857 55.5313 18.6857 54.822V50.328H19.9457V54.654C19.9457 55.41 20.1371 55.9933 20.5197 56.404C20.9024 56.8053 21.4251 57.006 22.0877 57.006C22.7691 57.006 23.3057 56.796 23.6977 56.376C24.0897 55.956 24.2857 55.3447 24.2857 54.542V50.328H25.5597ZM27.2348 54.136C27.2348 53.352 27.3935 52.666 27.7108 52.078C28.0281 51.4807 28.4621 51.0187 29.0128 50.692C29.5728 50.3653 30.1981 50.202 30.8888 50.202C31.4861 50.202 32.0415 50.342 32.5548 50.622C33.0681 50.8927 33.4601 51.252 33.7308 51.7V47.64H35.0188V58H33.7308V56.558C33.4788 57.0153 33.1055 57.3933 32.6108 57.692C32.1161 57.9813 31.5375 58.126 30.8748 58.126C30.1935 58.126 29.5728 57.958 29.0128 57.622C28.4621 57.286 28.0281 56.8147 27.7108 56.208C27.3935 55.6013 27.2348 54.9107 27.2348 54.136ZM33.7308 54.15C33.7308 53.5713 33.6141 53.0673 33.3808 52.638C33.1475 52.2087 32.8301 51.882 32.4288 51.658C32.0368 51.4247 31.6028 51.308 31.1268 51.308C30.6508 51.308 30.2168 51.42 29.8248 51.644C29.4328 51.868 29.1201 52.1947 28.8868 52.624C28.6535 53.0533 28.5368 53.5573 28.5368 54.136C28.5368 54.724 28.6535 55.2373 28.8868 55.676C29.1201 56.1053 29.4328 56.4367 29.8248 56.67C30.2168 56.894 30.6508 57.006 31.1268 57.006C31.6028 57.006 32.0368 56.894 32.4288 56.67C32.8301 56.4367 33.1475 56.1053 33.3808 55.676C33.6141 55.2373 33.7308 54.7287 33.7308 54.15ZM37.8298 49.082C37.5871 49.082 37.3818 48.998 37.2138 48.83C37.0458 48.662 36.9618 48.4567 36.9618 48.214C36.9618 47.9713 37.0458 47.766 37.2138 47.598C37.3818 47.43 37.5871 47.346 37.8298 47.346C38.0631 47.346 38.2591 47.43 38.4178 47.598C38.5858 47.766 38.6698 47.9713 38.6698 48.214C38.6698 48.4567 38.5858 48.662 38.4178 48.83C38.2591 48.998 38.0631 49.082 37.8298 49.082ZM38.4458 50.328V58H37.1718V50.328H38.4458ZM50.1175 55.83H45.8615L45.0775 58H43.7335L47.2615 48.298H48.7315L52.2455 58H50.9015L50.1175 55.83ZM49.7535 54.794L47.9895 49.866L46.2255 54.794H49.7535ZM55.0571 51.574C55.2811 51.1353 55.5984 50.7947 56.0091 50.552C56.4291 50.3093 56.9377 50.188 57.5351 50.188V51.504H57.1991C55.7711 51.504 55.0571 52.2787 55.0571 53.828V58H53.7831V50.328H55.0571V51.574ZM58.5297 54.136C58.5297 53.352 58.6884 52.666 59.0057 52.078C59.3231 51.4807 59.7571 51.0187 60.3077 50.692C60.8677 50.3653 61.4884 50.202 62.1697 50.202C62.8417 50.202 63.4251 50.3467 63.9197 50.636C64.4144 50.9253 64.7831 51.2893 65.0257 51.728V50.328H66.3137V58H65.0257V56.572C64.7737 57.02 64.3957 57.3933 63.8917 57.692C63.3971 57.9813 62.8184 58.126 62.1557 58.126C61.4744 58.126 60.8584 57.958 60.3077 57.622C59.7571 57.286 59.3231 56.8147 59.0057 56.208C58.6884 55.6013 58.5297 54.9107 58.5297 54.136ZM65.0257 54.15C65.0257 53.5713 64.9091 53.0673 64.6757 52.638C64.4424 52.2087 64.1251 51.882 63.7237 51.658C63.3317 51.4247 62.8977 51.308 62.4217 51.308C61.9457 51.308 61.5117 51.42 61.1197 51.644C60.7277 51.868 60.4151 52.1947 60.1817 52.624C59.9484 53.0533 59.8317 53.5573 59.8317 54.136C59.8317 54.724 59.9484 55.2373 60.1817 55.676C60.4151 56.1053 60.7277 56.4367 61.1197 56.67C61.5117 56.894 61.9457 57.006 62.4217 57.006C62.8977 57.006 63.3317 56.894 63.7237 56.67C64.1251 56.4367 64.4424 56.1053 64.6757 55.676C64.9091 55.2373 65.0257 54.7287 65.0257 54.15ZM69.7407 51.756C70.002 51.2987 70.3847 50.9253 70.8887 50.636C71.3927 50.3467 71.9667 50.202 72.6107 50.202C73.3013 50.202 73.922 50.3653 74.4727 50.692C75.0233 51.0187 75.4573 51.4807 75.7747 52.078C76.092 52.666 76.2507 53.352 76.2507 54.136C76.2507 54.9107 76.092 55.6013 75.7747 56.208C75.4573 56.8147 75.0187 57.286 74.4587 57.622C73.908 57.958 73.292 58.126 72.6107 58.126C71.948 58.126 71.3647 57.9813 70.8607 57.692C70.366 57.4027 69.9927 57.034 69.7407 56.586V58H68.4667V47.64H69.7407V51.756ZM74.9487 54.136C74.9487 53.5573 74.832 53.0533 74.5987 52.624C74.3653 52.1947 74.048 51.868 73.6467 51.644C73.2547 51.42 72.8207 51.308 72.3447 51.308C71.878 51.308 71.444 51.4247 71.0427 51.658C70.6507 51.882 70.3333 52.2133 70.0907 52.652C69.8573 53.0813 69.7407 53.5807 69.7407 54.15C69.7407 54.7287 69.8573 55.2373 70.0907 55.676C70.3333 56.1053 70.6507 56.4367 71.0427 56.67C71.444 56.894 71.878 57.006 72.3447 57.006C72.8207 57.006 73.2547 56.894 73.6467 56.67C74.048 56.4367 74.3653 56.1053 74.5987 55.676C74.832 55.2373 74.9487 54.724 74.9487 54.136ZM78.5856 49.082C78.3429 49.082 78.1376 48.998 77.9696 48.83C77.8016 48.662 77.7176 48.4567 77.7176 48.214C77.7176 47.9713 77.8016 47.766 77.9696 47.598C78.1376 47.43 78.3429 47.346 78.5856 47.346C78.8189 47.346 79.0149 47.43 79.1736 47.598C79.3416 47.766 79.4256 47.9713 79.4256 48.214C79.4256 48.4567 79.3416 48.662 79.1736 48.83C79.0149 48.998 78.8189 49.082 78.5856 49.082ZM79.2016 50.328V58H77.9276V50.328H79.2016ZM80.8969 54.136C80.8969 53.352 81.0556 52.666 81.3729 52.078C81.6903 51.4807 82.1243 51.0187 82.6749 50.692C83.2349 50.3653 83.8556 50.202 84.5369 50.202C85.2089 50.202 85.7923 50.3467 86.2869 50.636C86.7816 50.9253 87.1503 51.2893 87.3929 51.728V50.328H88.6809V58H87.3929V56.572C87.1409 57.02 86.7629 57.3933 86.2589 57.692C85.7643 57.9813 85.1856 58.126 84.5229 58.126C83.8416 58.126 83.2256 57.958 82.6749 57.622C82.1243 57.286 81.6903 56.8147 81.3729 56.208C81.0556 55.6013 80.8969 54.9107 80.8969 54.136ZM87.3929 54.15C87.3929 53.5713 87.2763 53.0673 87.0429 52.638C86.8096 52.2087 86.4923 51.882 86.0909 51.658C85.6989 51.4247 85.2649 51.308 84.7889 51.308C84.3129 51.308 83.8789 51.42 83.4869 51.644C83.0949 51.868 82.7823 52.1947 82.5489 52.624C82.3156 53.0533 82.1989 53.5573 82.1989 54.136C82.1989 54.724 82.3156 55.2373 82.5489 55.676C82.7823 56.1053 83.0949 56.4367 83.4869 56.67C83.8789 56.894 84.3129 57.006 84.7889 57.006C85.2649 57.006 85.6989 56.894 86.0909 56.67C86.4923 56.4367 86.8096 56.1053 87.0429 55.676C87.2763 55.2373 87.3929 54.7287 87.3929 54.15Z" fill="white"/>
</svg>
