<svg width="151" height="62" viewBox="0 0 151 62" fill="none" xmlns="http://www.w3.org/2000/svg">
<path d="M9.976 1.312V11H8.702V3.776L5.482 11H4.586L1.352 3.762V11H0.0780001V1.312H1.45L5.034 9.32L8.618 1.312H9.976ZM19.1366 6.87C19.1366 7.11267 19.1226 7.36933 19.0946 7.64H12.9626C13.0093 8.396 13.2659 8.98867 13.7326 9.418C14.2086 9.838 14.7826 10.048 15.4546 10.048C16.0053 10.048 16.4626 9.922 16.8266 9.67C17.1999 9.40867 17.4613 9.06333 17.6106 8.634H18.9826C18.7773 9.37133 18.3666 9.97333 17.7506 10.44C17.1346 10.8973 16.3693 11.126 15.4546 11.126C14.7266 11.126 14.0733 10.9627 13.4946 10.636C12.9253 10.3093 12.4773 9.84733 12.1506 9.25C11.8239 8.64333 11.6606 7.94333 11.6606 7.15C11.6606 6.35667 11.8193 5.66133 12.1366 5.064C12.4539 4.46667 12.8973 4.00933 13.4666 3.692C14.0453 3.36533 14.7079 3.202 15.4546 3.202C16.1826 3.202 16.8266 3.36067 17.3866 3.678C17.9466 3.99533 18.3759 4.434 18.6746 4.994C18.9826 5.54467 19.1366 6.17 19.1366 6.87ZM17.8206 6.604C17.8206 6.11867 17.7133 5.70333 17.4986 5.358C17.2839 5.00333 16.9899 4.73733 16.6166 4.56C16.2526 4.37333 15.8466 4.28 15.3986 4.28C14.7546 4.28 14.2039 4.48533 13.7466 4.896C13.2986 5.30667 13.0419 5.876 12.9766 6.604H17.8206ZM20.3422 7.136C20.3422 6.352 20.5009 5.666 20.8182 5.078C21.1356 4.48067 21.5696 4.01867 22.1202 3.692C22.6802 3.36533 23.3009 3.202 23.9822 3.202C24.6542 3.202 25.2376 3.34667 25.7322 3.636C26.2269 3.92533 26.5956 4.28933 26.8382 4.728V3.328H28.1262V11H26.8382V9.572C26.5862 10.02 26.2082 10.3933 25.7042 10.692C25.2096 10.9813 24.6309 11.126 23.9682 11.126C23.2869 11.126 22.6709 10.958 22.1202 10.622C21.5696 10.286 21.1356 9.81467 20.8182 9.208C20.5009 8.60133 20.3422 7.91067 20.3422 7.136ZM26.8382 7.15C26.8382 6.57133 26.7216 6.06733 26.4882 5.638C26.2549 5.20867 25.9376 4.882 25.5362 4.658C25.1442 4.42467 24.7102 4.308 24.2342 4.308C23.7582 4.308 23.3242 4.42 22.9322 4.644C22.5402 4.868 22.2276 5.19467 21.9942 5.624C21.7609 6.05333 21.6442 6.55733 21.6442 7.136C21.6442 7.724 21.7609 8.23733 21.9942 8.676C22.2276 9.10533 22.5402 9.43667 22.9322 9.67C23.3242 9.894 23.7582 10.006 24.2342 10.006C24.7102 10.006 25.1442 9.894 25.5362 9.67C25.9376 9.43667 26.2549 9.10533 26.4882 8.676C26.7216 8.23733 26.8382 7.72867 26.8382 7.15ZM32.9952 11.126C32.4072 11.126 31.8798 11.028 31.4132 10.832C30.9465 10.6267 30.5778 10.3467 30.3072 9.992C30.0365 9.628 29.8872 9.21267 29.8592 8.746H31.1752C31.2125 9.12867 31.3898 9.44133 31.7072 9.684C32.0338 9.92667 32.4585 10.048 32.9812 10.048C33.4665 10.048 33.8492 9.94067 34.1292 9.726C34.4092 9.51133 34.5492 9.24067 34.5492 8.914C34.5492 8.578 34.3998 8.33067 34.1012 8.172C33.8025 8.004 33.3405 7.84067 32.7152 7.682C32.1458 7.53267 31.6792 7.38333 31.3152 7.234C30.9605 7.07533 30.6525 6.84667 30.3912 6.548C30.1392 6.24 30.0132 5.83867 30.0132 5.344C30.0132 4.952 30.1298 4.59267 30.3632 4.266C30.5965 3.93933 30.9278 3.68267 31.3572 3.496C31.7865 3.3 32.2765 3.202 32.8272 3.202C33.6765 3.202 34.3625 3.41667 34.8852 3.846C35.4078 4.27533 35.6878 4.86333 35.7252 5.61H34.4512C34.4232 5.20867 34.2598 4.88667 33.9612 4.644C33.6718 4.40133 33.2798 4.28 32.7852 4.28C32.3278 4.28 31.9638 4.378 31.6932 4.574C31.4225 4.77 31.2872 5.02667 31.2872 5.344C31.2872 5.596 31.3665 5.806 31.5252 5.974C31.6932 6.13267 31.8985 6.26333 32.1412 6.366C32.3932 6.45933 32.7385 6.56667 33.1772 6.688C33.7278 6.83733 34.1758 6.98667 34.5212 7.136C34.8665 7.276 35.1605 7.49067 35.4032 7.78C35.6552 8.06933 35.7858 8.44733 35.7952 8.914C35.7952 9.334 35.6785 9.712 35.4452 10.048C35.2118 10.384 34.8805 10.65 34.4512 10.846C34.0312 11.0327 33.5458 11.126 32.9952 11.126ZM44.3976 3.328V11H43.1236V9.866C42.881 10.258 42.5403 10.566 42.1016 10.79C41.6723 11.0047 41.1963 11.112 40.6736 11.112C40.0763 11.112 39.5396 10.9907 39.0636 10.748C38.5876 10.496 38.2096 10.1227 37.9296 9.628C37.659 9.13333 37.5236 8.53133 37.5236 7.822V3.328H38.7836V7.654C38.7836 8.41 38.975 8.99333 39.3576 9.404C39.7403 9.80533 40.263 10.006 40.9256 10.006C41.607 10.006 42.1436 9.796 42.5356 9.376C42.9276 8.956 43.1236 8.34467 43.1236 7.542V3.328H44.3976ZM47.8227 4.574C48.0467 4.13533 48.364 3.79467 48.7747 3.552C49.1947 3.30933 49.7034 3.188 50.3007 3.188V4.504H49.9647C48.5367 4.504 47.8227 5.27867 47.8227 6.828V11H46.5487V3.328H47.8227V4.574ZM58.7714 6.87C58.7714 7.11267 58.7574 7.36933 58.7294 7.64H52.5974C52.644 8.396 52.9007 8.98867 53.3674 9.418C53.8434 9.838 54.4174 10.048 55.0894 10.048C55.64 10.048 56.0974 9.922 56.4614 9.67C56.8347 9.40867 57.096 9.06333 57.2454 8.634H58.6174C58.412 9.37133 58.0014 9.97333 57.3854 10.44C56.7694 10.8973 56.004 11.126 55.0894 11.126C54.3614 11.126 53.708 10.9627 53.1294 10.636C52.56 10.3093 52.112 9.84733 51.7854 9.25C51.4587 8.64333 51.2954 7.94333 51.2954 7.15C51.2954 6.35667 51.454 5.66133 51.7714 5.064C52.0887 4.46667 52.532 4.00933 53.1014 3.692C53.68 3.36533 54.3427 3.202 55.0894 3.202C55.8174 3.202 56.4614 3.36067 57.0214 3.678C57.5814 3.99533 58.0107 4.434 58.3094 4.994C58.6174 5.54467 58.7714 6.17 58.7714 6.87ZM57.4554 6.604C57.4554 6.11867 57.348 5.70333 57.1334 5.358C56.9187 5.00333 56.6247 4.73733 56.2514 4.56C55.8874 4.37333 55.4814 4.28 55.0334 4.28C54.3894 4.28 53.8387 4.48533 53.3814 4.896C52.9334 5.30667 52.6767 5.876 52.6114 6.604H57.4554ZM69.679 3.188C70.2763 3.188 70.8083 3.314 71.275 3.566C71.7417 3.80867 72.1103 4.17733 72.381 4.672C72.6517 5.16667 72.787 5.76867 72.787 6.478V11H71.527V6.66C71.527 5.89467 71.3357 5.31133 70.953 4.91C70.5797 4.49933 70.071 4.294 69.427 4.294C68.7643 4.294 68.237 4.50867 67.845 4.938C67.453 5.358 67.257 5.96933 67.257 6.772V11H65.997V6.66C65.997 5.89467 65.8057 5.31133 65.423 4.91C65.0497 4.49933 64.541 4.294 63.897 4.294C63.2343 4.294 62.707 4.50867 62.315 4.938C61.923 5.358 61.727 5.96933 61.727 6.772V11H60.453V3.328H61.727V4.434C61.979 4.03267 62.315 3.72467 62.735 3.51C63.1643 3.29533 63.6357 3.188 64.149 3.188C64.793 3.188 65.3623 3.33267 65.857 3.622C66.3517 3.91133 66.7203 4.336 66.963 4.896C67.1777 4.35467 67.5323 3.93467 68.027 3.636C68.5217 3.33733 69.0723 3.188 69.679 3.188ZM81.8768 6.87C81.8768 7.11267 81.8628 7.36933 81.8348 7.64H75.7028C75.7495 8.396 76.0062 8.98867 76.4728 9.418C76.9488 9.838 77.5228 10.048 78.1948 10.048C78.7455 10.048 79.2028 9.922 79.5668 9.67C79.9402 9.40867 80.2015 9.06333 80.3508 8.634H81.7228C81.5175 9.37133 81.1068 9.97333 80.4908 10.44C79.8748 10.8973 79.1095 11.126 78.1948 11.126C77.4668 11.126 76.8135 10.9627 76.2348 10.636C75.6655 10.3093 75.2175 9.84733 74.8908 9.25C74.5642 8.64333 74.4008 7.94333 74.4008 7.15C74.4008 6.35667 74.5595 5.66133 74.8768 5.064C75.1942 4.46667 75.6375 4.00933 76.2068 3.692C76.7855 3.36533 77.4482 3.202 78.1948 3.202C78.9228 3.202 79.5668 3.36067 80.1268 3.678C80.6868 3.99533 81.1162 4.434 81.4148 4.994C81.7228 5.54467 81.8768 6.17 81.8768 6.87ZM80.5608 6.604C80.5608 6.11867 80.4535 5.70333 80.2388 5.358C80.0242 5.00333 79.7302 4.73733 79.3568 4.56C78.9928 4.37333 78.5868 4.28 78.1388 4.28C77.4948 4.28 76.9442 4.48533 76.4868 4.896C76.0388 5.30667 75.7822 5.876 75.7168 6.604H80.5608ZM87.2965 3.188C88.2298 3.188 88.9858 3.47267 89.5645 4.042C90.1431 4.602 90.4325 5.414 90.4325 6.478V11H89.1725V6.66C89.1725 5.89467 88.9811 5.31133 88.5985 4.91C88.2158 4.49933 87.6931 4.294 87.0305 4.294C86.3585 4.294 85.8218 4.504 85.4205 4.924C85.0285 5.344 84.8325 5.95533 84.8325 6.758V11H83.5585V3.328H84.8325V4.42C85.0845 4.028 85.4251 3.72467 85.8545 3.51C86.2931 3.29533 86.7738 3.188 87.2965 3.188ZM94.0675 4.378V8.9C94.0675 9.27333 94.1469 9.53933 94.3055 9.698C94.4642 9.84733 94.7395 9.922 95.1315 9.922H96.0695V11H94.9215C94.2122 11 93.6802 10.8367 93.3255 10.51C92.9709 10.1833 92.7935 9.64667 92.7935 8.9V4.378H91.7995V3.328H92.7935V1.396H94.0675V3.328H96.0695V4.378H94.0675ZM104.44 11.098C103.796 11.098 103.217 10.986 102.704 10.762C102.2 10.5287 101.803 10.2113 101.514 9.81C101.224 9.39933 101.075 8.928 101.066 8.396H102.424C102.47 8.85333 102.657 9.24067 102.984 9.558C103.32 9.866 103.805 10.02 104.44 10.02C105.046 10.02 105.522 9.87067 105.868 9.572C106.222 9.264 106.4 8.872 106.4 8.396C106.4 8.02267 106.297 7.71933 106.092 7.486C105.886 7.25267 105.63 7.07533 105.322 6.954C105.014 6.83267 104.598 6.702 104.076 6.562C103.432 6.394 102.914 6.226 102.522 6.058C102.139 5.89 101.808 5.62867 101.528 5.274C101.257 4.91 101.122 4.42467 101.122 3.818C101.122 3.286 101.257 2.81467 101.528 2.404C101.798 1.99333 102.176 1.676 102.662 1.452C103.156 1.228 103.721 1.116 104.356 1.116C105.27 1.116 106.017 1.34467 106.596 1.802C107.184 2.25933 107.515 2.866 107.59 3.622H106.19C106.143 3.24867 105.947 2.922 105.602 2.642C105.256 2.35267 104.799 2.208 104.23 2.208C103.698 2.208 103.264 2.348 102.928 2.628C102.592 2.89867 102.424 3.28133 102.424 3.776C102.424 4.13067 102.522 4.42 102.718 4.644C102.923 4.868 103.17 5.04067 103.46 5.162C103.758 5.274 104.174 5.40467 104.706 5.554C105.35 5.73133 105.868 5.90867 106.26 6.086C106.652 6.254 106.988 6.52 107.268 6.884C107.548 7.23867 107.688 7.724 107.688 8.34C107.688 8.816 107.562 9.264 107.31 9.684C107.058 10.104 106.684 10.4447 106.19 10.706C105.695 10.9673 105.112 11.098 104.44 11.098ZM116.562 6.87C116.562 7.11267 116.548 7.36933 116.52 7.64H110.388C110.435 8.396 110.692 8.98867 111.158 9.418C111.634 9.838 112.208 10.048 112.88 10.048C113.431 10.048 113.888 9.922 114.252 9.67C114.626 9.40867 114.887 9.06333 115.036 8.634H116.408C116.203 9.37133 115.792 9.97333 115.176 10.44C114.56 10.8973 113.795 11.126 112.88 11.126C112.152 11.126 111.499 10.9627 110.92 10.636C110.351 10.3093 109.903 9.84733 109.576 9.25C109.25 8.64333 109.086 7.94333 109.086 7.15C109.086 6.35667 109.245 5.66133 109.562 5.064C109.88 4.46667 110.323 4.00933 110.892 3.692C111.471 3.36533 112.134 3.202 112.88 3.202C113.608 3.202 114.252 3.36067 114.812 3.678C115.372 3.99533 115.802 4.434 116.1 4.994C116.408 5.54467 116.562 6.17 116.562 6.87ZM115.246 6.604C115.246 6.11867 115.139 5.70333 114.924 5.358C114.71 5.00333 114.416 4.73733 114.042 4.56C113.678 4.37333 113.272 4.28 112.824 4.28C112.18 4.28 111.63 4.48533 111.172 4.896C110.724 5.30667 110.468 5.876 110.402 6.604H115.246ZM119.518 4.574C119.742 4.13533 120.059 3.79467 120.47 3.552C120.89 3.30933 121.399 3.188 121.996 3.188V4.504H121.66C120.232 4.504 119.518 5.27867 119.518 6.828V11H118.244V3.328H119.518V4.574ZM126.323 9.824L128.703 3.328H130.061L127.051 11H125.567L122.557 3.328H123.929L126.323 9.824ZM131.972 2.082C131.73 2.082 131.524 1.998 131.356 1.83C131.188 1.662 131.104 1.45667 131.104 1.214C131.104 0.971333 131.188 0.766 131.356 0.598C131.524 0.43 131.73 0.345999 131.972 0.345999C132.206 0.345999 132.402 0.43 132.56 0.598C132.728 0.766 132.812 0.971333 132.812 1.214C132.812 1.45667 132.728 1.662 132.56 1.83C132.402 1.998 132.206 2.082 131.972 2.082ZM132.588 3.328V11H131.314V3.328H132.588ZM134.284 7.15C134.284 6.35667 134.442 5.666 134.76 5.078C135.077 4.48067 135.516 4.01867 136.076 3.692C136.645 3.36533 137.294 3.202 138.022 3.202C138.964 3.202 139.739 3.43067 140.346 3.888C140.962 4.34533 141.368 4.98 141.564 5.792H140.192C140.061 5.32533 139.804 4.95667 139.422 4.686C139.048 4.41533 138.582 4.28 138.022 4.28C137.294 4.28 136.706 4.532 136.258 5.036C135.81 5.53067 135.586 6.23533 135.586 7.15C135.586 8.074 135.81 8.788 136.258 9.292C136.706 9.796 137.294 10.048 138.022 10.048C138.582 10.048 139.048 9.91733 139.422 9.656C139.795 9.39467 140.052 9.02133 140.192 8.536H141.564C141.358 9.32 140.948 9.95 140.332 10.426C139.716 10.8927 138.946 11.126 138.022 11.126C137.294 11.126 136.645 10.9627 136.076 10.636C135.516 10.3093 135.077 9.84733 134.76 9.25C134.442 8.65267 134.284 7.95267 134.284 7.15ZM150.264 6.87C150.264 7.11267 150.25 7.36933 150.222 7.64H144.09C144.136 8.396 144.393 8.98867 144.86 9.418C145.336 9.838 145.91 10.048 146.582 10.048C147.132 10.048 147.59 9.922 147.954 9.67C148.327 9.40867 148.588 9.06333 148.738 8.634H150.11C149.904 9.37133 149.494 9.97333 148.878 10.44C148.262 10.8973 147.496 11.126 146.582 11.126C145.854 11.126 145.2 10.9627 144.622 10.636C144.052 10.3093 143.604 9.84733 143.278 9.25C142.951 8.64333 142.788 7.94333 142.788 7.15C142.788 6.35667 142.946 5.66133 143.264 5.064C143.581 4.46667 144.024 4.00933 144.594 3.692C145.172 3.36533 145.835 3.202 146.582 3.202C147.31 3.202 147.954 3.36067 148.514 3.678C149.074 3.99533 149.503 4.434 149.802 4.994C150.11 5.54467 150.264 6.17 150.264 6.87ZM148.948 6.604C148.948 6.11867 148.84 5.70333 148.626 5.358C148.411 5.00333 148.117 4.73733 147.744 4.56C147.38 4.37333 146.974 4.28 146.526 4.28C145.882 4.28 145.331 4.48533 144.874 4.896C144.426 5.30667 144.169 5.876 144.104 6.604H148.948ZM6.602 28.098C6.602 28.91 6.322 29.5867 5.762 30.128C5.21133 30.66 4.36667 30.926 3.228 30.926H1.352V35H0.0780001V25.242H3.228C4.32933 25.242 5.16467 25.508 5.734 26.04C6.31267 26.572 6.602 27.258 6.602 28.098ZM3.228 29.876C3.93733 29.876 4.46 29.722 4.796 29.414C5.132 29.106 5.3 28.6673 5.3 28.098C5.3 26.894 4.60933 26.292 3.228 26.292H1.352V29.876H3.228ZM9.45942 28.574C9.68342 28.1353 10.0008 27.7947 10.4114 27.552C10.8314 27.3093 11.3401 27.188 11.9374 27.188V28.504H11.6014C10.1734 28.504 9.45942 29.2787 9.45942 30.828V35H8.18542V27.328H9.45942V28.574ZM16.7541 35.126C16.0354 35.126 15.3821 34.9627 14.7941 34.636C14.2154 34.3093 13.7581 33.8473 13.4221 33.25C13.0954 32.6433 12.9321 31.9433 12.9321 31.15C12.9321 30.366 13.1001 29.6753 13.4361 29.078C13.7814 28.4713 14.2481 28.0093 14.8361 27.692C15.4241 27.3653 16.0821 27.202 16.8101 27.202C17.5381 27.202 18.1961 27.3653 18.7841 27.692C19.3721 28.0093 19.8341 28.4667 20.1701 29.064C20.5154 29.6613 20.6881 30.3567 20.6881 31.15C20.6881 31.9433 20.5107 32.6433 20.1561 33.25C19.8107 33.8473 19.3394 34.3093 18.7421 34.636C18.1447 34.9627 17.4821 35.126 16.7541 35.126ZM16.7541 34.006C17.2114 34.006 17.6407 33.8987 18.0421 33.684C18.4434 33.4693 18.7654 33.1473 19.0081 32.718C19.2601 32.2887 19.3861 31.766 19.3861 31.15C19.3861 30.534 19.2647 30.0113 19.0221 29.582C18.7794 29.1527 18.4621 28.8353 18.0701 28.63C17.6781 28.4153 17.2534 28.308 16.7961 28.308C16.3294 28.308 15.9001 28.4153 15.5081 28.63C15.1254 28.8353 14.8174 29.1527 14.5841 29.582C14.3507 30.0113 14.2341 30.534 14.2341 31.15C14.2341 31.7753 14.3461 32.3027 14.5701 32.732C14.8034 33.1613 15.1114 33.4833 15.4941 33.698C15.8767 33.9033 16.2967 34.006 16.7541 34.006ZM21.8872 31.136C21.8872 30.352 22.0458 29.666 22.3632 29.078C22.6805 28.4807 23.1145 28.0187 23.6652 27.692C24.2252 27.3653 24.8505 27.202 25.5412 27.202C26.1385 27.202 26.6938 27.342 27.2072 27.622C27.7205 27.8927 28.1125 28.252 28.3832 28.7V24.64H29.6712V35H28.3832V33.558C28.1312 34.0153 27.7578 34.3933 27.2632 34.692C26.7685 34.9813 26.1898 35.126 25.5272 35.126C24.8458 35.126 24.2252 34.958 23.6652 34.622C23.1145 34.286 22.6805 33.8147 22.3632 33.208C22.0458 32.6013 21.8872 31.9107 21.8872 31.136ZM28.3832 31.15C28.3832 30.5713 28.2665 30.0673 28.0332 29.638C27.7998 29.2087 27.4825 28.882 27.0812 28.658C26.6892 28.4247 26.2552 28.308 25.7792 28.308C25.3032 28.308 24.8692 28.42 24.4772 28.644C24.0852 28.868 23.7725 29.1947 23.5392 29.624C23.3058 30.0533 23.1892 30.5573 23.1892 31.136C23.1892 31.724 23.3058 32.2373 23.5392 32.676C23.7725 33.1053 24.0852 33.4367 24.4772 33.67C24.8692 33.894 25.3032 34.006 25.7792 34.006C26.2552 34.006 26.6892 33.894 27.0812 33.67C27.4825 33.4367 27.7998 33.1053 28.0332 32.676C28.2665 32.2373 28.3832 31.7287 28.3832 31.15ZM38.6281 27.328V35H37.3541V33.866C37.1114 34.258 36.7708 34.566 36.3321 34.79C35.9028 35.0047 35.4268 35.112 34.9041 35.112C34.3068 35.112 33.7701 34.9907 33.2941 34.748C32.8181 34.496 32.4401 34.1227 32.1601 33.628C31.8894 33.1333 31.7541 32.5313 31.7541 31.822V27.328H33.0141V31.654C33.0141 32.41 33.2054 32.9933 33.5881 33.404C33.9708 33.8053 34.4934 34.006 35.1561 34.006C35.8374 34.006 36.3741 33.796 36.7661 33.376C37.1581 32.956 37.3541 32.3447 37.3541 31.542V27.328H38.6281ZM40.3032 31.15C40.3032 30.3567 40.4618 29.666 40.7792 29.078C41.0965 28.4807 41.5352 28.0187 42.0952 27.692C42.6645 27.3653 43.3132 27.202 44.0412 27.202C44.9838 27.202 45.7585 27.4307 46.3652 27.888C46.9812 28.3453 47.3872 28.98 47.5832 29.792H46.2112C46.0805 29.3253 45.8238 28.9567 45.4412 28.686C45.0678 28.4153 44.6012 28.28 44.0412 28.28C43.3132 28.28 42.7252 28.532 42.2772 29.036C41.8292 29.5307 41.6052 30.2353 41.6052 31.15C41.6052 32.074 41.8292 32.788 42.2772 33.292C42.7252 33.796 43.3132 34.048 44.0412 34.048C44.6012 34.048 45.0678 33.9173 45.4412 33.656C45.8145 33.3947 46.0712 33.0213 46.2112 32.536H47.5832C47.3778 33.32 46.9672 33.95 46.3512 34.426C45.7352 34.8927 44.9652 35.126 44.0412 35.126C43.3132 35.126 42.6645 34.9627 42.0952 34.636C41.5352 34.3093 41.0965 33.8473 40.7792 33.25C40.4618 32.6527 40.3032 31.9527 40.3032 31.15ZM50.8371 28.378V32.9C50.8371 33.2733 50.9164 33.5393 51.0751 33.698C51.2337 33.8473 51.5091 33.922 51.9011 33.922H52.8391V35H51.6911C50.9817 35 50.4497 34.8367 50.0951 34.51C49.7404 34.1833 49.5631 33.6467 49.5631 32.9V28.378H48.5691V27.328H49.5631V25.396H50.8371V27.328H52.8391V28.378H50.8371ZM63.8831 32.83H59.6271L58.8431 35H57.4991L61.0271 25.298H62.4971L66.0111 35H64.6671L63.8831 32.83ZM63.5191 31.794L61.7551 26.866L59.9911 31.794H63.5191ZM67.0727 31.136C67.0727 30.352 67.2314 29.666 67.5487 29.078C67.866 28.4807 68.3 28.0187 68.8507 27.692C69.4107 27.3653 70.036 27.202 70.7267 27.202C71.324 27.202 71.8794 27.342 72.3927 27.622C72.906 27.8927 73.298 28.252 73.5687 28.7V24.64H74.8567V35H73.5687V33.558C73.3167 34.0153 72.9434 34.3933 72.4487 34.692C71.954 34.9813 71.3754 35.126 70.7127 35.126C70.0314 35.126 69.4107 34.958 68.8507 34.622C68.3 34.286 67.866 33.8147 67.5487 33.208C67.2314 32.6013 67.0727 31.9107 67.0727 31.136ZM73.5687 31.15C73.5687 30.5713 73.452 30.0673 73.2187 29.638C72.9854 29.2087 72.668 28.882 72.2667 28.658C71.8747 28.4247 71.4407 28.308 70.9647 28.308C70.4887 28.308 70.0547 28.42 69.6627 28.644C69.2707 28.868 68.958 29.1947 68.7247 29.624C68.4914 30.0533 68.3747 30.5573 68.3747 31.136C68.3747 31.724 68.4914 32.2373 68.7247 32.676C68.958 33.1053 69.2707 33.4367 69.6627 33.67C70.0547 33.894 70.4887 34.006 70.9647 34.006C71.4407 34.006 71.8747 33.894 72.2667 33.67C72.668 33.4367 72.9854 33.1053 73.2187 32.676C73.452 32.2373 73.5687 31.7287 73.5687 31.15ZM79.8656 33.824L82.2456 27.328H83.6036L80.5936 35H79.1096L76.0996 27.328H77.4716L79.8656 33.824ZM85.5153 26.082C85.2726 26.082 85.0673 25.998 84.8993 25.83C84.7313 25.662 84.6473 25.4567 84.6473 25.214C84.6473 24.9713 84.7313 24.766 84.8993 24.598C85.0673 24.43 85.2726 24.346 85.5153 24.346C85.7486 24.346 85.9446 24.43 86.1033 24.598C86.2713 24.766 86.3553 24.9713 86.3553 25.214C86.3553 25.4567 86.2713 25.662 86.1033 25.83C85.9446 25.998 85.7486 26.082 85.5153 26.082ZM86.1313 27.328V35H84.8573V27.328H86.1313ZM87.8266 31.15C87.8266 30.3567 87.9853 29.666 88.3026 29.078C88.6199 28.4807 89.0586 28.0187 89.6186 27.692C90.1879 27.3653 90.8366 27.202 91.5646 27.202C92.5073 27.202 93.2819 27.4307 93.8886 27.888C94.5046 28.3453 94.9106 28.98 95.1066 29.792H93.7346C93.6039 29.3253 93.3473 28.9567 92.9646 28.686C92.5913 28.4153 92.1246 28.28 91.5646 28.28C90.8366 28.28 90.2486 28.532 89.8006 29.036C89.3526 29.5307 89.1286 30.2353 89.1286 31.15C89.1286 32.074 89.3526 32.788 89.8006 33.292C90.2486 33.796 90.8366 34.048 91.5646 34.048C92.1246 34.048 92.5913 33.9173 92.9646 33.656C93.3379 33.3947 93.5946 33.0213 93.7346 32.536H95.1066C94.9013 33.32 94.4906 33.95 93.8746 34.426C93.2586 34.8927 92.4886 35.126 91.5646 35.126C90.8366 35.126 90.1879 34.9627 89.6186 34.636C89.0586 34.3093 88.6199 33.8473 88.3026 33.25C87.9853 32.6527 87.8266 31.9527 87.8266 31.15ZM103.807 30.87C103.807 31.1127 103.793 31.3693 103.765 31.64H97.6325C97.6792 32.396 97.9358 32.9887 98.4025 33.418C98.8785 33.838 99.4525 34.048 100.125 34.048C100.675 34.048 101.133 33.922 101.497 33.67C101.87 33.4087 102.131 33.0633 102.281 32.634H103.653C103.447 33.3713 103.037 33.9733 102.421 34.44C101.805 34.8973 101.039 35.126 100.125 35.126C99.3965 35.126 98.7432 34.9627 98.1645 34.636C97.5952 34.3093 97.1472 33.8473 96.8205 33.25C96.4938 32.6433 96.3305 31.9433 96.3305 31.15C96.3305 30.3567 96.4892 29.6613 96.8065 29.064C97.1238 28.4667 97.5672 28.0093 98.1365 27.692C98.7152 27.3653 99.3778 27.202 100.125 27.202C100.853 27.202 101.497 27.3607 102.057 27.678C102.617 27.9953 103.046 28.434 103.345 28.994C103.653 29.5447 103.807 30.17 103.807 30.87ZM102.491 30.604C102.491 30.1187 102.383 29.7033 102.169 29.358C101.954 29.0033 101.66 28.7373 101.287 28.56C100.923 28.3733 100.517 28.28 100.069 28.28C99.4245 28.28 98.8738 28.4853 98.4165 28.896C97.9685 29.3067 97.7118 29.876 97.6465 30.604H102.491ZM1.352 48.242V58H0.0780001V48.242H1.352ZM7.26131 50.188C8.19465 50.188 8.95065 50.4727 9.52931 51.042C10.108 51.602 10.3973 52.414 10.3973 53.478V58H9.13731V53.66C9.13731 52.8947 8.94598 52.3113 8.56331 51.91C8.18065 51.4993 7.65798 51.294 6.99531 51.294C6.32331 51.294 5.78665 51.504 5.38531 51.924C4.99331 52.344 4.79731 52.9553 4.79731 53.758V58H3.52331V50.328H4.79731V51.42C5.04931 51.028 5.38998 50.7247 5.81931 50.51C6.25798 50.2953 6.73865 50.188 7.26131 50.188ZM14.0324 51.378V55.9C14.0324 56.2733 14.1117 56.5393 14.2704 56.698C14.4291 56.8473 14.7044 56.922 15.0964 56.922H16.0344V58H14.8864C14.1771 58 13.6451 57.8367 13.2904 57.51C12.9357 57.1833 12.7584 56.6467 12.7584 55.9V51.378H11.7644V50.328H12.7584V48.396H14.0324V50.328H16.0344V51.378H14.0324ZM24.578 53.87C24.578 54.1127 24.564 54.3693 24.536 54.64H18.404C18.4507 55.396 18.7073 55.9887 19.174 56.418C19.65 56.838 20.224 57.048 20.896 57.048C21.4467 57.048 21.904 56.922 22.268 56.67C22.6413 56.4087 22.9027 56.0633 23.052 55.634H24.424C24.2187 56.3713 23.808 56.9733 23.192 57.44C22.576 57.8973 21.8107 58.126 20.896 58.126C20.168 58.126 19.5147 57.9627 18.936 57.636C18.3667 57.3093 17.9187 56.8473 17.592 56.25C17.2653 55.6433 17.102 54.9433 17.102 54.15C17.102 53.3567 17.2607 52.6613 17.578 52.064C17.8953 51.4667 18.3387 51.0093 18.908 50.692C19.4867 50.3653 20.1493 50.202 20.896 50.202C21.624 50.202 22.268 50.3607 22.828 50.678C23.388 50.9953 23.8173 51.434 24.116 51.994C24.424 52.5447 24.578 53.17 24.578 53.87ZM23.262 53.604C23.262 53.1187 23.1547 52.7033 22.94 52.358C22.7253 52.0033 22.4313 51.7373 22.058 51.56C21.694 51.3733 21.288 51.28 20.84 51.28C20.196 51.28 19.6453 51.4853 19.188 51.896C18.74 52.3067 18.4833 52.876 18.418 53.604H23.262ZM27.5336 51.574C27.7576 51.1353 28.075 50.7947 28.4856 50.552C28.9056 50.3093 29.4143 50.188 30.0116 50.188V51.504H29.6756C28.2476 51.504 27.5336 52.2787 27.5336 53.828V58H26.2596V50.328H27.5336V51.574ZM32.1403 49.082C31.8976 49.082 31.6923 48.998 31.5243 48.83C31.3563 48.662 31.2723 48.4567 31.2723 48.214C31.2723 47.9713 31.3563 47.766 31.5243 47.598C31.6923 47.43 31.8976 47.346 32.1403 47.346C32.3736 47.346 32.5696 47.43 32.7283 47.598C32.8963 47.766 32.9803 47.9713 32.9803 48.214C32.9803 48.4567 32.8963 48.662 32.7283 48.83C32.5696 48.998 32.3736 49.082 32.1403 49.082ZM32.7563 50.328V58H31.4823V50.328H32.7563ZM38.2736 58.126C37.5549 58.126 36.9016 57.9627 36.3136 57.636C35.7349 57.3093 35.2776 56.8473 34.9416 56.25C34.6149 55.6433 34.4516 54.9433 34.4516 54.15C34.4516 53.366 34.6196 52.6753 34.9556 52.078C35.3009 51.4713 35.7676 51.0093 36.3556 50.692C36.9436 50.3653 37.6016 50.202 38.3296 50.202C39.0576 50.202 39.7156 50.3653 40.3036 50.692C40.8916 51.0093 41.3536 51.4667 41.6896 52.064C42.0349 52.6613 42.2076 53.3567 42.2076 54.15C42.2076 54.9433 42.0303 55.6433 41.6756 56.25C41.3303 56.8473 40.8589 57.3093 40.2616 57.636C39.6643 57.9627 39.0016 58.126 38.2736 58.126ZM38.2736 57.006C38.7309 57.006 39.1603 56.8987 39.5616 56.684C39.9629 56.4693 40.2849 56.1473 40.5276 55.718C40.7796 55.2887 40.9056 54.766 40.9056 54.15C40.9056 53.534 40.7843 53.0113 40.5416 52.582C40.2989 52.1527 39.9816 51.8353 39.5896 51.63C39.1976 51.4153 38.7729 51.308 38.3156 51.308C37.8489 51.308 37.4196 51.4153 37.0276 51.63C36.6449 51.8353 36.3369 52.1527 36.1036 52.582C35.8703 53.0113 35.7536 53.534 35.7536 54.15C35.7536 54.7753 35.8656 55.3027 36.0896 55.732C36.3229 56.1613 36.6309 56.4833 37.0136 56.698C37.3963 56.9033 37.8163 57.006 38.2736 57.006ZM45.1567 51.574C45.3807 51.1353 45.698 50.7947 46.1087 50.552C46.5287 50.3093 47.0374 50.188 47.6347 50.188V51.504H47.2987C45.8707 51.504 45.1567 52.2787 45.1567 53.828V58H43.8827V50.328H45.1567V51.574ZM55.8758 48.242C56.9398 48.242 57.8591 48.4427 58.6338 48.844C59.4178 49.236 60.0151 49.8007 60.4258 50.538C60.8458 51.2753 61.0558 52.1433 61.0558 53.142C61.0558 54.1407 60.8458 55.0087 60.4258 55.746C60.0151 56.474 59.4178 57.034 58.6338 57.426C57.8591 57.8087 56.9398 58 55.8758 58H52.8378V48.242H55.8758ZM55.8758 56.95C57.1358 56.95 58.0971 56.6187 58.7598 55.956C59.4224 55.284 59.7538 54.346 59.7538 53.142C59.7538 51.9287 59.4178 50.9813 58.7458 50.3C58.0831 49.6187 57.1264 49.278 55.8758 49.278H54.1118V56.95H55.8758ZM69.7362 53.87C69.7362 54.1127 69.7222 54.3693 69.6942 54.64H63.5622C63.6089 55.396 63.8655 55.9887 64.3322 56.418C64.8082 56.838 65.3822 57.048 66.0542 57.048C66.6049 57.048 67.0622 56.922 67.4262 56.67C67.7995 56.4087 68.0609 56.0633 68.2102 55.634H69.5822C69.3769 56.3713 68.9662 56.9733 68.3502 57.44C67.7342 57.8973 66.9689 58.126 66.0542 58.126C65.3262 58.126 64.6729 57.9627 64.0942 57.636C63.5249 57.3093 63.0769 56.8473 62.7502 56.25C62.4235 55.6433 62.2602 54.9433 62.2602 54.15C62.2602 53.3567 62.4189 52.6613 62.7362 52.064C63.0535 51.4667 63.4969 51.0093 64.0662 50.692C64.6449 50.3653 65.3075 50.202 66.0542 50.202C66.7822 50.202 67.4262 50.3607 67.9862 50.678C68.5462 50.9953 68.9755 51.434 69.2742 51.994C69.5822 52.5447 69.7362 53.17 69.7362 53.87ZM68.4202 53.604C68.4202 53.1187 68.3129 52.7033 68.0982 52.358C67.8835 52.0033 67.5895 51.7373 67.2162 51.56C66.8522 51.3733 66.4462 51.28 65.9982 51.28C65.3542 51.28 64.8035 51.4853 64.3462 51.896C63.8982 52.3067 63.6415 52.876 63.5762 53.604H68.4202ZM74.1338 58.126C73.5458 58.126 73.0185 58.028 72.5518 57.832C72.0852 57.6267 71.7165 57.3467 71.4458 56.992C71.1752 56.628 71.0258 56.2127 70.9978 55.746H72.3138C72.3512 56.1287 72.5285 56.4413 72.8458 56.684C73.1725 56.9267 73.5972 57.048 74.1198 57.048C74.6052 57.048 74.9878 56.9407 75.2678 56.726C75.5478 56.5113 75.6878 56.2407 75.6878 55.914C75.6878 55.578 75.5385 55.3307 75.2398 55.172C74.9412 55.004 74.4792 54.8407 73.8538 54.682C73.2845 54.5327 72.8178 54.3833 72.4538 54.234C72.0992 54.0753 71.7912 53.8467 71.5298 53.548C71.2778 53.24 71.1518 52.8387 71.1518 52.344C71.1518 51.952 71.2685 51.5927 71.5018 51.266C71.7352 50.9393 72.0665 50.6827 72.4958 50.496C72.9252 50.3 73.4152 50.202 73.9658 50.202C74.8152 50.202 75.5012 50.4167 76.0238 50.846C76.5465 51.2753 76.8265 51.8633 76.8638 52.61H75.5898C75.5618 52.2087 75.3985 51.8867 75.0998 51.644C74.8105 51.4013 74.4185 51.28 73.9238 51.28C73.4665 51.28 73.1025 51.378 72.8318 51.574C72.5612 51.77 72.4258 52.0267 72.4258 52.344C72.4258 52.596 72.5052 52.806 72.6638 52.974C72.8318 53.1327 73.0372 53.2633 73.2798 53.366C73.5318 53.4593 73.8772 53.5667 74.3158 53.688C74.8665 53.8373 75.3145 53.9867 75.6598 54.136C76.0052 54.276 76.2992 54.4907 76.5418 54.78C76.7938 55.0693 76.9245 55.4473 76.9338 55.914C76.9338 56.334 76.8172 56.712 76.5838 57.048C76.3505 57.384 76.0192 57.65 75.5898 57.846C75.1698 58.0327 74.6845 58.126 74.1338 58.126ZM79.3903 49.082C79.1476 49.082 78.9423 48.998 78.7743 48.83C78.6063 48.662 78.5223 48.4567 78.5223 48.214C78.5223 47.9713 78.6063 47.766 78.7743 47.598C78.9423 47.43 79.1476 47.346 79.3903 47.346C79.6236 47.346 79.8196 47.43 79.9783 47.598C80.1463 47.766 80.2303 47.9713 80.2303 48.214C80.2303 48.4567 80.1463 48.662 79.9783 48.83C79.8196 48.998 79.6236 49.082 79.3903 49.082ZM80.0063 50.328V58H78.7323V50.328H80.0063ZM85.3416 50.202C86.0043 50.202 86.5829 50.3467 87.0776 50.636C87.5816 50.9253 87.9549 51.2893 88.1976 51.728V50.328H89.4856V58.168C89.4856 58.868 89.3363 59.4887 89.0376 60.03C88.7389 60.5807 88.3096 61.01 87.7496 61.318C87.1989 61.626 86.5549 61.78 85.8176 61.78C84.8096 61.78 83.9696 61.542 83.2976 61.066C82.6256 60.59 82.2289 59.9413 82.1076 59.12H83.3676C83.5076 59.5867 83.7969 59.96 84.2356 60.24C84.6743 60.5293 85.2016 60.674 85.8176 60.674C86.5176 60.674 87.0869 60.4547 87.5256 60.016C87.9736 59.5773 88.1976 58.9613 88.1976 58.168V56.558C87.9456 57.006 87.5723 57.3793 87.0776 57.678C86.5829 57.9767 86.0043 58.126 85.3416 58.126C84.6603 58.126 84.0396 57.958 83.4796 57.622C82.9289 57.286 82.4949 56.8147 82.1776 56.208C81.8603 55.6013 81.7016 54.9107 81.7016 54.136C81.7016 53.352 81.8603 52.666 82.1776 52.078C82.4949 51.4807 82.9289 51.0187 83.4796 50.692C84.0396 50.3653 84.6603 50.202 85.3416 50.202ZM88.1976 54.15C88.1976 53.5713 88.0809 53.0673 87.8476 52.638C87.6143 52.2087 87.2969 51.882 86.8956 51.658C86.5036 51.4247 86.0696 51.308 85.5936 51.308C85.1176 51.308 84.6836 51.42 84.2916 51.644C83.8996 51.868 83.5869 52.1947 83.3536 52.624C83.1203 53.0533 83.0036 53.5573 83.0036 54.136C83.0036 54.724 83.1203 55.2373 83.3536 55.676C83.5869 56.1053 83.8996 56.4367 84.2916 56.67C84.6836 56.894 85.1176 57.006 85.5936 57.006C86.0696 57.006 86.5036 56.894 86.8956 56.67C87.2969 56.4367 87.6143 56.1053 87.8476 55.676C88.0809 55.2373 88.1976 54.7287 88.1976 54.15ZM95.3765 50.188C96.3099 50.188 97.0659 50.4727 97.6445 51.042C98.2232 51.602 98.5125 52.414 98.5125 53.478V58H97.2525V53.66C97.2525 52.8947 97.0612 52.3113 96.6785 51.91C96.2959 51.4993 95.7732 51.294 95.1105 51.294C94.4385 51.294 93.9019 51.504 93.5005 51.924C93.1085 52.344 92.9125 52.9553 92.9125 53.758V58H91.6385V50.328H92.9125V51.42C93.1645 51.028 93.5052 50.7247 93.9345 50.51C94.3732 50.2953 94.8539 50.188 95.3765 50.188Z" fill="#A4A4A4"/>
</svg>
